<svg width="246" height="22" viewBox="0 0 246 22" fill="none" xmlns="http://www.w3.org/2000/svg">
<path id="Vector" d="M245.584 9.69822C243.257 9.75972 240.913 10.0136 238.603 9.84568C222.72 8.69561 206.851 7.15268 190.946 6.34325C174.919 5.52923 158.842 5.0771 142.792 5.10099C128.752 5.11831 114.699 5.69927 100.713 6.62416C88.7848 7.41069 76.9463 9.09127 65.0556 10.2874C47.4921 12.0659 30.3185 15.388 13.2371 19.0624C10.8575 19.5747 8.55699 20.3201 6.17742 20.8324C4.01009 21.3008 2.22817 20.8482 0.97092 19.0346C-0.485829 16.9242 -0.0946222 15.8477 2.66201 15.342C19.0504 12.3691 35.4018 9.2093 51.8667 6.5362C60.13 5.19709 68.6079 4.68992 77.0075 3.92745C83.708 3.31675 90.4329 2.52139 97.1556 2.49048C101.377 2.47746 105.349 1.60898 109.438 1.39059C118.625 0.909921 127.848 0.898176 137.053 0.648267C142.376 0.505684 147.688 0.184551 153.008 0.130914C157.766 0.0785621 162.545 0.160608 167.3 0.42731C169.909 0.576748 172.479 1.29628 175.092 1.6017C176.201 1.73222 177.586 1.78393 178.471 1.34195C182.235 -0.528946 185.576 2.59458 189.75 1.71879C194.712 0.672008 200.458 2.11885 205.856 2.53579C208.691 2.76045 211.543 2.99318 214.344 3.41699C218.052 3.9712 221.708 4.76837 225.407 5.34449C226.559 5.52112 227.856 5.09451 228.979 5.32205C230.956 5.7225 232.82 6.5641 234.806 6.95005C238.387 7.64051 242.01 8.13216 245.622 8.70501C245.609 9.03115 245.588 9.35696 245.567 9.68277L245.584 9.69822Z" fill="#8AD43D"/>
</svg>
