<svg width="40" height="40" viewBox="0 0 40 40" fill="none" xmlns="http://www.w3.org/2000/svg">
<rect x="0.5" y="0.5" width="39" height="39" rx="19.5" stroke="#0D3D56" stroke-opacity="0.12"/>
<g clip-path="url(#clip0_693_5576)">
<path d="M12.5 16.25C12.5 16.0842 12.5658 15.9253 12.6831 15.8081C12.8003 15.6908 12.9592 15.625 13.125 15.625H15.625C15.7908 15.625 15.9497 15.6908 16.0669 15.8081C16.1842 15.9253 16.25 16.0842 16.25 16.25C16.25 16.4158 16.1842 16.5747 16.0669 16.6919C15.9497 16.8092 15.7908 16.875 15.625 16.875H13.125C12.9592 16.875 12.8003 16.8092 12.6831 16.6919C12.5658 16.5747 12.5 16.4158 12.5 16.25ZM26.875 23.125H25V21.875C25 21.7092 24.9342 21.5503 24.8169 21.4331C24.6997 21.3158 24.5408 21.25 24.375 21.25H23.125C22.9592 21.25 22.8003 21.3158 22.6831 21.4331C22.5658 21.5503 22.5 21.7092 22.5 21.875V25.625C22.5 25.7908 22.5658 25.9497 22.6831 26.0669C22.8003 26.1842 22.9592 26.25 23.125 26.25H24.375C24.5408 26.25 24.6997 26.1842 24.8169 26.0669C24.9342 25.9497 25 25.7908 25 25.625V24.375H26.875C27.0408 24.375 27.1997 24.3092 27.3169 24.1919C27.4342 24.0747 27.5 23.9158 27.5 23.75C27.5 23.5842 27.4342 23.4253 27.3169 23.3081C27.1997 23.1908 27.0408 23.125 26.875 23.125ZM20.625 23.125H13.125C12.9592 23.125 12.8003 23.1908 12.6831 23.3081C12.5658 23.4253 12.5 23.5842 12.5 23.75C12.5 23.9158 12.5658 24.0747 12.6831 24.1919C12.8003 24.3092 12.9592 24.375 13.125 24.375H20.625C20.7908 24.375 20.9497 24.3092 21.0669 24.1919C21.1842 24.0747 21.25 23.9158 21.25 23.75C21.25 23.5842 21.1842 23.4253 21.0669 23.3081C20.9497 23.1908 20.7908 23.125 20.625 23.125ZM18.125 18.75H19.375C19.5408 18.75 19.6997 18.6842 19.8169 18.5669C19.9342 18.4497 20 18.2908 20 18.125V16.875H26.875C27.0408 16.875 27.1997 16.8092 27.3169 16.6919C27.4342 16.5747 27.5 16.4158 27.5 16.25C27.5 16.0842 27.4342 15.9253 27.3169 15.8081C27.1997 15.6908 27.0408 15.625 26.875 15.625H20V14.375C20 14.2092 19.9342 14.0503 19.8169 13.9331C19.6997 13.8158 19.5408 13.75 19.375 13.75H18.125C17.9592 13.75 17.8003 13.8158 17.6831 13.9331C17.5658 14.0503 17.5 14.2092 17.5 14.375V18.125C17.5 18.2908 17.5658 18.4497 17.6831 18.5669C17.8003 18.6842 17.9592 18.75 18.125 18.75Z" fill="#0D3D56"/>
</g>
<defs>
<clipPath id="clip0_693_5576">
<rect width="20" height="20" fill="white" transform="translate(10 10)"/>
</clipPath>
</defs>
</svg>
