<svg width="40" height="40" viewBox="0 0 40 40" fill="none" xmlns="http://www.w3.org/2000/svg">
<g clip-path="url(#clip0_416_965)">
<path d="M32.5 6.25H7.5C7.16848 6.25 6.85054 6.3817 6.61612 6.61612C6.3817 6.85054 6.25 7.16848 6.25 7.5V32.5C6.25 32.8315 6.3817 33.1495 6.61612 33.3839C6.85054 33.6183 7.16848 33.75 7.5 33.75H32.5C32.8315 33.75 33.1495 33.6183 33.3839 33.3839C33.6183 33.1495 33.75 32.8315 33.75 32.5V7.5C33.75 7.16848 33.6183 6.85054 33.3839 6.61612C33.1495 6.3817 32.8315 6.25 32.5 6.25ZM13.75 28.75C13.2555 28.75 12.7722 28.6034 12.3611 28.3287C11.95 28.054 11.6295 27.6635 11.4403 27.2067C11.2511 26.7499 11.2016 26.2472 11.298 25.7623C11.3945 25.2773 11.6326 24.8319 11.9822 24.4822C12.3319 24.1326 12.7773 23.8945 13.2623 23.798C13.7472 23.7016 14.2499 23.7511 14.7067 23.9403C15.1635 24.1295 15.554 24.45 15.8287 24.8611C16.1034 25.2722 16.25 25.7555 16.25 26.25C16.25 26.913 15.9866 27.5489 15.5178 28.0178C15.0489 28.4866 14.413 28.75 13.75 28.75ZM26.25 18.75C25.7555 18.75 25.2722 18.6034 24.8611 18.3287C24.45 18.054 24.1295 17.6635 23.9403 17.2067C23.7511 16.7499 23.7016 16.2472 23.798 15.7623C23.8945 15.2773 24.1326 14.8319 24.4822 14.4822C24.8319 14.1326 25.2773 13.8945 25.7623 13.798C26.2472 13.7016 26.7499 13.7511 27.2067 13.9403C27.6635 14.1295 28.054 14.45 28.3287 14.8611C28.6034 15.2722 28.75 15.7555 28.75 16.25C28.75 16.913 28.4866 17.5489 28.0178 18.0178C27.5489 18.4866 26.913 18.75 26.25 18.75Z" fill="#0D3D56"/>
<path d="M26.25 18.75C27.6307 18.75 28.75 17.6307 28.75 16.25C28.75 14.8693 27.6307 13.75 26.25 13.75C24.8693 13.75 23.75 14.8693 23.75 16.25C23.75 17.6307 24.8693 18.75 26.25 18.75Z" stroke="#8AD43D" stroke-width="2" stroke-linecap="round" stroke-linejoin="round"/>
<path d="M13.75 28.75C15.1307 28.75 16.25 27.6307 16.25 26.25C16.25 24.8693 15.1307 23.75 13.75 23.75C12.3693 23.75 11.25 24.8693 11.25 26.25C11.25 27.6307 12.3693 28.75 13.75 28.75Z" stroke="#8AD43D" stroke-width="2" stroke-linecap="round" stroke-linejoin="round"/>
<path d="M23.75 33.75V25L13.75 15V6.25" stroke="#8AD43D" stroke-width="2" stroke-linecap="round" stroke-linejoin="round"/>
<path d="M13.75 23.75V15" stroke="#8AD43D" stroke-width="2" stroke-linecap="round" stroke-linejoin="round"/>
<path d="M32.5 6.25H7.5C6.80964 6.25 6.25 6.80964 6.25 7.5V32.5C6.25 33.1904 6.80964 33.75 7.5 33.75H32.5C33.1904 33.75 33.75 33.1904 33.75 32.5V7.5C33.75 6.80964 33.1904 6.25 32.5 6.25Z" stroke="#8AD43D" stroke-width="2" stroke-linecap="round" stroke-linejoin="round"/>
<path d="M21.25 6.25V11.25L24.4828 14.4828" stroke="#8AD43D" stroke-width="2" stroke-linecap="round" stroke-linejoin="round"/>
</g>
<defs>
<clipPath id="clip0_416_965">
<rect width="40" height="40" fill="white"/>
</clipPath>
</defs>
</svg>
