<svg width="32" height="32" viewBox="0 0 32 32" fill="none" xmlns="http://www.w3.org/2000/svg">
<g id="FlowerTulip">
<path id="Vector" d="M26 6.00072C24.4781 5.99934 22.9726 6.31567 21.58 6.92947C19.6925 3.75822 16.59 2.17947 16.4475 2.10572C16.3086 2.0362 16.1554 2 16 2C15.8446 2 15.6914 2.0362 15.5525 2.10572C15.41 2.17822 12.3025 3.75822 10.42 6.92947C9.02735 6.31567 7.52191 5.99934 6 6.00072C5.73478 6.00072 5.48043 6.10607 5.29289 6.29361C5.10536 6.48115 5 6.7355 5 7.00072V12.0007C5.0033 14.744 6.03022 17.3872 7.87979 19.4132C9.72935 21.4392 12.2684 22.702 15 22.9545V27.3832L10.4475 25.1057C10.33 25.0469 10.202 25.0119 10.0709 25.0026C9.93986 24.9933 9.80823 25.0099 9.68357 25.0514C9.55891 25.093 9.44365 25.1587 9.34438 25.2448C9.24511 25.3309 9.16377 25.4357 9.105 25.5532C9.04623 25.6707 9.01119 25.7987 9.00188 25.9298C8.99256 26.0609 9.00915 26.1925 9.05071 26.3171C9.09226 26.4418 9.15797 26.5571 9.24406 26.6563C9.33016 26.7556 9.43497 26.8369 9.5525 26.8957L15.5525 29.8957C15.6914 29.9652 15.8446 30.0014 16 30.0014C16.1554 30.0014 16.3086 29.9652 16.4475 29.8957L22.4475 26.8957C22.6849 26.777 22.8654 26.5689 22.9493 26.3171C23.0332 26.0654 23.0137 25.7906 22.895 25.5532C22.7763 25.3158 22.5682 25.1353 22.3164 25.0514C22.0647 24.9675 21.7899 24.987 21.5525 25.1057L17 27.3832V22.9545C19.7316 22.702 22.2707 21.4392 24.1202 19.4132C25.9698 17.3872 26.9967 14.744 27 12.0007V7.00072C27 6.7355 26.8946 6.48115 26.7071 6.29361C26.5196 6.10607 26.2652 6.00072 26 6.00072ZM7 12.0007V8.05572C9.19914 8.30435 11.2299 9.35346 12.7053 11.0031C14.1806 12.6527 14.9974 14.7876 15 17.0007V20.9457C12.8009 20.6971 10.7701 19.648 9.29473 17.9983C7.81937 16.3487 7.00257 14.2139 7 12.0007ZM25 12.0007C24.9974 14.2139 24.1806 16.3487 22.7053 17.9983C21.2299 19.648 19.1991 20.6971 17 20.9457V17.0007C17.0026 14.7876 17.8194 12.6527 19.2947 11.0031C20.7701 9.35346 22.8009 8.30435 25 8.05572V12.0007Z" fill="#0D3D56"/>
</g>
</svg>
