<svg width="32" height="32" viewBox="0 0 32 32" fill="none" xmlns="http://www.w3.org/2000/svg">
<g id="ForkKnife" clip-path="url(#clip0_693_354)">
<path id="Vector" d="M27 5.0006V28.0006C27 28.2658 26.8946 28.5202 26.7071 28.7077C26.5196 28.8952 26.2652 29.0006 26 29.0006C25.7348 29.0006 25.4804 28.8952 25.2929 28.7077C25.1054 28.5202 25 28.2658 25 28.0006V22.0006H19C18.7348 22.0006 18.4804 21.8952 18.2929 21.7077C18.1054 21.5202 18 21.2658 18 21.0006C18.0464 18.6052 18.349 16.2216 18.9025 13.8906C20.125 8.82935 22.4425 5.43685 25.6063 4.08185C25.7583 4.01671 25.9242 3.99032 26.0889 4.00503C26.2537 4.01974 26.4123 4.0751 26.5504 4.16615C26.6885 4.25719 26.8019 4.38108 26.8803 4.52672C26.9588 4.67235 26.9999 4.83517 27 5.0006ZM14.9862 4.83685C14.9667 4.70554 14.9211 4.57945 14.8523 4.46593C14.7835 4.3524 14.6927 4.25372 14.5854 4.17564C14.478 4.09755 14.3561 4.04163 14.2269 4.01113C14.0977 3.98062 13.9637 3.97616 13.8328 3.99798C13.7018 4.01981 13.5765 4.06749 13.4642 4.13825C13.3519 4.20901 13.2548 4.30142 13.1785 4.41011C13.1023 4.51879 13.0484 4.64157 13.0202 4.77128C12.9919 4.90099 12.9897 5.03504 13.0138 5.1656L13.9862 11.0006H11V5.0006C11 4.73538 10.8946 4.48103 10.7071 4.29349C10.5196 4.10596 10.2652 4.0006 10 4.0006C9.73478 4.0006 9.48043 4.10596 9.29289 4.29349C9.10536 4.48103 9 4.73538 9 5.0006V11.0006H6.01375L6.98625 5.1656C7.01031 5.03504 7.00813 4.90099 6.97984 4.77128C6.95155 4.64157 6.89772 4.51879 6.82148 4.41011C6.74524 4.30142 6.64812 4.20901 6.53579 4.13825C6.42346 4.06749 6.29816 4.01981 6.16721 3.99798C6.03625 3.97616 5.90227 3.98062 5.77306 4.01113C5.64385 4.04163 5.52201 4.09755 5.41464 4.17564C5.30727 4.25372 5.21653 4.3524 5.1477 4.46593C5.07887 4.57945 5.03334 4.70554 5.01375 4.83685L4.01375 10.8369C4.00478 10.891 4.00018 10.9457 4 11.0006C4.002 12.4179 4.5049 13.7888 5.41983 14.8712C6.33477 15.9535 7.60285 16.6777 9 16.9156V28.0006C9 28.2658 9.10536 28.5202 9.29289 28.7077C9.48043 28.8952 9.73478 29.0006 10 29.0006C10.2652 29.0006 10.5196 28.8952 10.7071 28.7077C10.8946 28.5202 11 28.2658 11 28.0006V16.9156C12.3971 16.6777 13.6652 15.9535 14.5802 14.8712C15.4951 13.7888 15.998 12.4179 16 11.0006C15.9998 10.9457 15.9952 10.891 15.9862 10.8369L14.9862 4.83685Z" fill="#0D3D56"/>
</g>
<defs>
<clipPath id="clip0_693_354">
<rect width="32" height="32" fill="white"/>
</clipPath>
</defs>
</svg>
