<svg width="32" height="32" viewBox="0 0 32 32" fill="none" xmlns="http://www.w3.org/2000/svg">
<g id="Group 1171275206">
<path id="Vector" d="M29.9655 15.6323L27.913 4.63228C27.8629 4.36415 27.7584 4.10912 27.606 3.88286C27.4537 3.6566 27.2566 3.4639 27.027 3.31661C26.7974 3.16932 26.5401 3.07056 26.271 3.02639C26.0018 2.98222 25.7264 2.99359 25.4618 3.05978L25.423 3.07103L18.858 5.00728H13.1455L6.58054 3.07728L6.54179 3.06603C6.27716 2.99984 6.00179 2.98847 5.73261 3.03264C5.46343 3.07681 5.20613 3.17557 4.97654 3.32286C4.74694 3.47015 4.5499 3.66285 4.39753 3.88911C4.24517 4.11537 4.14069 4.3704 4.09054 4.63853L2.03804 15.6323C1.95027 16.0726 2.01542 16.5296 2.22272 16.9279C2.43002 17.3261 2.76704 17.6416 3.17804 17.8223C3.44125 17.943 3.72722 18.0061 4.01679 18.0073C4.36338 18.0071 4.70356 17.9139 5.00179 17.7373V23.0073C5.00179 24.3334 5.52858 25.6051 6.46626 26.5428C7.40394 27.4805 8.67571 28.0073 10.0018 28.0073H22.0018C23.3279 28.0073 24.5996 27.4805 25.5373 26.5428C26.475 25.6051 27.0018 24.3334 27.0018 23.0073V17.7385C27.2997 17.9148 27.6394 18.008 27.9855 18.0085C28.2754 18.0077 28.5618 17.9451 28.8255 17.8248C29.237 17.644 29.5744 17.3281 29.7817 16.9293C29.9891 16.5306 30.0539 16.0729 29.9655 15.6323ZM22.0018 26.0073H17.0018V24.421L18.7093 22.7148C18.8969 22.5271 19.0023 22.2726 19.0023 22.0073C19.0023 21.7419 18.8969 21.4874 18.7093 21.2998C18.5217 21.1121 18.2672 21.0067 18.0018 21.0067C17.7364 21.0067 17.4819 21.1121 17.2943 21.2998L16.0018 22.5935L14.7093 21.2998C14.5217 21.1121 14.2672 21.0067 14.0018 21.0067C13.7364 21.0067 13.4819 21.1121 13.2943 21.2998C13.1066 21.4874 13.0012 21.7419 13.0012 22.0073C13.0012 22.2726 13.1066 22.5271 13.2943 22.7148L15.0018 24.421V26.0073H10.0018C9.20614 26.0073 8.44308 25.6912 7.88047 25.1286C7.31786 24.566 7.00179 23.8029 7.00179 23.0073V15.396L13.493 7.00728H18.5105L25.0018 15.396V23.0073C25.0018 23.8029 24.6857 24.566 24.1231 25.1286C23.5605 25.6912 22.7974 26.0073 22.0018 26.0073ZM13.0018 17.5073C13.0018 17.804 12.9138 18.094 12.749 18.3406C12.5842 18.5873 12.3499 18.7796 12.0758 18.8931C11.8017 19.0066 11.5001 19.0363 11.2092 18.9785C10.9182 18.9206 10.6509 18.7777 10.4411 18.5679C10.2314 18.3582 10.0885 18.0909 10.0306 17.7999C9.97273 17.5089 10.0024 17.2073 10.116 16.9333C10.2295 16.6592 10.4218 16.4249 10.6684 16.2601C10.9151 16.0953 11.2051 16.0073 11.5018 16.0073C11.8996 16.0073 12.2811 16.1653 12.5625 16.4466C12.8438 16.7279 13.0018 17.1095 13.0018 17.5073ZM22.0018 17.5073C22.0018 17.804 21.9138 18.094 21.749 18.3406C21.5842 18.5873 21.3499 18.7796 21.0758 18.8931C20.8017 19.0066 20.5001 19.0363 20.2092 18.9785C19.9182 18.9206 19.6509 18.7777 19.4411 18.5679C19.2314 18.3582 19.0885 18.0909 19.0306 17.7999C18.9727 17.5089 19.0024 17.2073 19.116 16.9333C19.2295 16.6592 19.4218 16.4249 19.6684 16.2601C19.9151 16.0953 20.2051 16.0073 20.5018 16.0073C20.8996 16.0073 21.2811 16.1653 21.5625 16.4466C21.8438 16.7279 22.0018 17.1095 22.0018 17.5073Z" fill="#0D3D56"/>
</g>
</svg>
