<svg width="32" height="32" viewBox="0 0 32 32" fill="none" xmlns="http://www.w3.org/2000/svg">
<g id="Group 1171275205">
<path id="Vector" d="M26.9436 23.6589C27.0086 23.8377 27.0213 24.0314 26.9801 24.2172C26.9389 24.4029 26.8456 24.5731 26.7111 24.7077L23.7111 27.7077C23.6182 27.8007 23.508 27.8746 23.3866 27.925C23.2652 27.9754 23.135 28.0014 23.0036 28.0014C22.9707 28.0033 22.9377 28.0033 22.9048 28.0014C22.7576 27.9869 22.6154 27.9399 22.4885 27.8639C22.3616 27.7878 22.2532 27.6845 22.1711 27.5614L16.6623 19.2964L14.0036 21.9502V25.0014C14.0035 25.2663 13.8983 25.5203 13.7111 25.7077C13.7111 25.7077 11.9611 27.4652 11.7261 27.6927C11.6284 27.795 11.5099 27.8751 11.3786 27.9277C11.1338 28.0274 10.8596 28.0261 10.6158 27.9242C10.372 27.8224 10.1784 27.6281 10.0773 27.3839L10.0698 27.3652L8.23232 22.7702L3.62857 20.9289C3.475 20.8675 3.33906 20.7689 3.23293 20.642C3.12681 20.5152 3.05382 20.3639 3.0205 20.2019C2.98718 20.0399 2.99457 19.8721 3.04201 19.7137C3.08945 19.5552 3.17545 19.411 3.29232 19.2939L5.29232 17.2939C5.38571 17.2006 5.49663 17.1268 5.61871 17.0766C5.74078 17.0264 5.87158 17.0008 6.00357 17.0014H9.05357L11.7123 14.3427L3.44857 8.83268C3.32532 8.75063 3.22183 8.64224 3.14556 8.51532C3.0693 8.38841 3.02217 8.24614 3.00758 8.0988C2.99299 7.95145 3.0113 7.80271 3.06119 7.6633C3.11108 7.5239 3.19131 7.39731 3.29607 7.29268L6.29607 4.29268C6.43065 4.15816 6.60081 4.06484 6.78658 4.02365C6.97235 3.98247 7.16601 3.99514 7.34482 4.06018L18.0873 7.96643L22.0286 4.02518C22.685 3.36877 23.5753 3 24.5036 3C24.9632 3 25.4184 3.09053 25.843 3.26644C26.2677 3.44234 26.6536 3.70016 26.9786 4.02518C27.3036 4.3502 27.5614 4.73606 27.7373 5.16072C27.9132 5.58538 28.0038 6.04053 28.0038 6.50018C28.0038 6.95983 27.9132 7.41498 27.7373 7.83964C27.5614 8.2643 27.3036 8.65016 26.9786 8.97518L23.0373 12.9164L26.9436 23.6589Z" fill="#0D3D56"/>
</g>
</svg>
