<svg width="32" height="32" viewBox="0 0 32 32" fill="none" xmlns="http://www.w3.org/2000/svg">
<g id="Jeep" clip-path="url(#clip0_693_444)">
<path id="Vector" d="M31.0022 12.9338C30.9801 12.6762 30.8611 12.4366 30.6692 12.2633C30.4774 12.09 30.2269 11.9959 29.9684 12H28.8109L27.6497 6.58125C27.5521 6.13445 27.3052 5.73428 26.9495 5.44679C26.5938 5.15931 26.1508 5.0017 25.6934 5H6.31095C5.85363 5.0017 5.41056 5.15931 5.0549 5.44679C4.69924 5.73428 4.45224 6.13445 4.3547 6.58125L3.19345 12H2.03595C1.77745 11.9959 1.52701 12.09 1.33516 12.2633C1.1433 12.4366 1.02432 12.6762 1.0022 12.9338C0.993115 13.0705 1.01225 13.2077 1.05843 13.3368C1.1046 13.4659 1.17682 13.5841 1.2706 13.6841C1.36438 13.7841 1.47771 13.8637 1.60357 13.9181C1.72942 13.9724 1.86511 14.0003 2.0022 14H3.0022V26C3.0022 26.5304 3.21291 27.0391 3.58798 27.4142C3.96306 27.7893 4.47176 28 5.0022 28H8.0022C8.53263 28 9.04134 27.7893 9.41641 27.4142C9.79148 27.0391 10.0022 26.5304 10.0022 26V23H12.5022C12.6348 23 12.762 22.9473 12.8558 22.8536C12.9495 22.7598 13.0022 22.6326 13.0022 22.5V17.0338C12.9987 16.7757 13.0931 16.5259 13.2663 16.3345C13.4396 16.1432 13.6788 16.0246 13.9359 16.0025C14.0727 15.9934 14.2099 16.0126 14.339 16.0587C14.4681 16.1049 14.5863 16.1771 14.6863 16.2709C14.7863 16.3647 14.8659 16.478 14.9203 16.6039C14.9746 16.7297 15.0025 16.8654 15.0022 17.0025V22.5025C15.0022 22.6351 15.0549 22.7623 15.1486 22.8561C15.2424 22.9498 15.3696 23.0025 15.5022 23.0025H16.5022C16.6348 23.0025 16.762 22.9498 16.8558 22.8561C16.9495 22.7623 17.0022 22.6351 17.0022 22.5025V17.0338C16.9987 16.7757 17.0931 16.5259 17.2663 16.3345C17.4396 16.1432 17.6788 16.0246 17.9359 16.0025C18.0727 15.9934 18.2099 16.0126 18.339 16.0587C18.4681 16.1049 18.5863 16.1771 18.6863 16.2709C18.7863 16.3647 18.8659 16.478 18.9203 16.6039C18.9746 16.7297 19.0025 16.8654 19.0022 17.0025V22.5025C19.0022 22.6351 19.0549 22.7623 19.1486 22.8561C19.2424 22.9498 19.3696 23.0025 19.5022 23.0025H22.0022V26.0025C22.0022 26.5329 22.2129 27.0416 22.588 27.4167C22.9631 27.7918 23.4718 28.0025 24.0022 28.0025H27.0022C27.5326 28.0025 28.0413 27.7918 28.4164 27.4167C28.7915 27.0416 29.0022 26.5329 29.0022 26.0025V14H30.0022C30.1393 14.0003 30.275 13.9724 30.4008 13.9181C30.5267 13.8637 30.64 13.7841 30.7338 13.6841C30.8276 13.5841 30.8998 13.4659 30.946 13.3368C30.9921 13.2077 31.0113 13.0705 31.0022 12.9338ZM8.5022 19C8.20553 19 7.91552 18.912 7.66884 18.7472C7.42217 18.5824 7.22991 18.3481 7.11638 18.074C7.00285 17.7999 6.97314 17.4983 7.03102 17.2074C7.0889 16.9164 7.23176 16.6491 7.44154 16.4393C7.65132 16.2296 7.91859 16.0867 8.20956 16.0288C8.50053 15.9709 8.80213 16.0007 9.07622 16.1142C9.35031 16.2277 9.58458 16.42 9.7494 16.6666C9.91422 16.9133 10.0022 17.2033 10.0022 17.5C10.0022 17.8978 9.84416 18.2794 9.56286 18.5607C9.28155 18.842 8.90002 19 8.5022 19ZM23.5022 19C23.2055 19 22.9155 18.912 22.6688 18.7472C22.4222 18.5824 22.2299 18.3481 22.1164 18.074C22.0028 17.7999 21.9731 17.4983 22.031 17.2074C22.0889 16.9164 22.2318 16.6491 22.4415 16.4393C22.6513 16.2296 22.9186 16.0867 23.2096 16.0288C23.5005 15.9709 23.8021 16.0007 24.0762 16.1142C24.3503 16.2277 24.5846 16.42 24.7494 16.6666C24.9142 16.9133 25.0022 17.2033 25.0022 17.5C25.0022 17.8978 24.8442 18.2794 24.5629 18.5607C24.2816 18.842 23.9 19 23.5022 19Z" fill="#0D3D56"/>
</g>
<defs>
<clipPath id="clip0_693_444">
<rect width="32" height="32" fill="white"/>
</clipPath>
</defs>
</svg>
