<svg width="32" height="32" viewBox="0 0 32 32" fill="none" xmlns="http://www.w3.org/2000/svg">
<g id="LightbulbFilament" clip-path="url(#clip0_693_454)">
<path id="Vector" d="M22.0002 28.9993C22.0002 29.2645 21.8948 29.5189 21.7073 29.7064C21.5197 29.8939 21.2654 29.9993 21.0002 29.9993H11.0002C10.7349 29.9993 10.4806 29.8939 10.2931 29.7064C10.1055 29.5189 10.0002 29.2645 10.0002 28.9993C10.0002 28.7341 10.1055 28.4797 10.2931 28.2922C10.4806 28.1046 10.7349 27.9993 11.0002 27.9993H21.0002C21.2654 27.9993 21.5197 28.1046 21.7073 28.2922C21.8948 28.4797 22.0002 28.7341 22.0002 28.9993ZM27.0002 12.9993C27.0045 14.6663 26.6279 16.3123 25.8991 17.8117C25.1704 19.311 24.1087 20.624 22.7952 21.6505C22.5496 21.8388 22.3502 22.0807 22.2125 22.3578C22.0747 22.6349 22.0021 22.9398 22.0002 23.2493V23.9993C22.0002 24.5297 21.7894 25.0384 21.4144 25.4135C21.0393 25.7886 20.5306 25.9993 20.0002 25.9993H12.0002C11.4697 25.9993 10.961 25.7886 10.586 25.4135C10.2109 25.0384 10.0002 24.5297 10.0002 23.9993V23.2493C9.99996 22.9435 9.92965 22.6419 9.79465 22.3676C9.65965 22.0932 9.46355 21.8535 9.22141 21.6668C7.91116 20.6463 6.85022 19.3412 6.11889 17.8502C5.38755 16.3591 5.00499 14.7213 5.00016 13.0605C4.96766 7.10304 9.78266 2.14179 15.7352 1.99929C17.2018 1.96394 18.6608 2.22235 20.0261 2.75931C21.3914 3.29626 22.6355 4.10091 23.6852 5.1259C24.7349 6.15089 25.5689 7.37549 26.1382 8.72765C26.7075 10.0798 27.0006 11.5322 27.0002 12.9993ZM20.7077 13.2918C20.6148 13.1988 20.5045 13.1251 20.3831 13.0747C20.2617 13.0244 20.1316 12.9985 20.0002 12.9985C19.8687 12.9985 19.7386 13.0244 19.6172 13.0747C19.4958 13.1251 19.3855 13.1988 19.2927 13.2918L16.0002 16.5855L12.7077 13.2918C12.52 13.1041 12.2655 12.9987 12.0002 12.9987C11.7348 12.9987 11.4803 13.1041 11.2927 13.2918C11.105 13.4794 10.9996 13.7339 10.9996 13.9993C10.9996 14.2647 11.105 14.5191 11.2927 14.7068L15.0002 18.413V22.9993C15.0002 23.2645 15.1055 23.5189 15.2931 23.7064C15.4806 23.8939 15.7349 23.9993 16.0002 23.9993C16.2654 23.9993 16.5197 23.8939 16.7073 23.7064C16.8948 23.5189 17.0002 23.2645 17.0002 22.9993V18.413L20.7077 14.7068C20.8006 14.6139 20.8744 14.5036 20.9247 14.3822C20.975 14.2608 21.0009 14.1307 21.0009 13.9993C21.0009 13.8679 20.975 13.7377 20.9247 13.6163C20.8744 13.4949 20.8006 13.3847 20.7077 13.2918Z" fill="#0D3D56"/>
</g>
<defs>
<clipPath id="clip0_693_454">
<rect width="32" height="32" fill="white"/>
</clipPath>
</defs>
</svg>
