<svg width="32" height="32" viewBox="0 0 32 32" fill="none" xmlns="http://www.w3.org/2000/svg">
<g clip-path="url(#clip0_693_399)">
<path d="M31.3188 24.9477L28.3188 25.9477C28.0905 26.0241 27.8423 26.0156 27.6198 25.9237C27.3973 25.8319 27.2154 25.6629 27.1075 25.4477L23.3838 17.9989H13.0025C12.7373 17.9989 12.4829 17.8936 12.2954 17.7061C12.1079 17.5185 12.0025 17.2642 12.0025 16.9989V13.2914C10.3918 13.7723 9.00783 14.8167 8.10367 16.2339C7.19951 17.651 6.83552 19.3462 7.07822 21.0096C7.32092 22.673 8.1541 24.1935 9.42547 25.2932C10.6969 26.3929 12.3215 26.9984 14.0025 26.9989C17.2413 26.9989 20.2638 24.7427 21.0338 21.7489C21.0666 21.6217 21.1242 21.5022 21.2032 21.3973C21.2822 21.2923 21.3811 21.2039 21.4943 21.1372C21.6075 21.0704 21.7327 21.0266 21.8628 21.0083C21.9929 20.9899 22.1253 20.9974 22.2525 21.0302C22.3797 21.063 22.4992 21.1206 22.6042 21.1996C22.7092 21.2786 22.7976 21.3775 22.8643 21.4907C22.931 21.6039 22.9748 21.7291 22.9932 21.8592C23.0116 21.9893 23.0041 22.1217 22.9713 22.2489C21.9638 26.1614 18.1925 28.9989 14.0025 28.9989C11.7907 28.9976 9.6569 28.1819 8.00825 26.7075C6.35959 25.2331 5.3116 23.2032 5.06428 21.0053C4.81696 18.8074 5.38763 16.5954 6.66739 14.7915C7.94714 12.9875 9.84635 11.718 12.0025 11.2252V8.8502C11.1969 8.60999 10.5046 8.08782 10.0523 7.37916C9.59994 6.6705 9.41781 5.8227 9.53919 4.9908C9.66056 4.1589 10.0773 3.39848 10.7133 2.84859C11.3492 2.2987 12.1618 1.99609 13.0025 1.99609C13.8432 1.99609 14.6558 2.2987 15.2918 2.84859C15.9277 3.39848 16.3445 4.1589 16.4659 4.9908C16.5872 5.8227 16.4051 6.6705 15.9528 7.37916C15.5005 8.08782 14.8082 8.60999 14.0025 8.8502V10.9989H21.0025C21.2677 10.9989 21.5221 11.1043 21.7096 11.2918C21.8972 11.4794 22.0025 11.7337 22.0025 11.9989C22.0025 12.2642 21.8972 12.5185 21.7096 12.7061C21.5221 12.8936 21.2677 12.9989 21.0025 12.9989H14.0025V15.9989H24.0025C24.1881 15.999 24.37 16.0508 24.5278 16.1483C24.6856 16.2459 24.8132 16.3855 24.8963 16.5514L28.5088 23.7764L30.6863 23.0502C30.9379 22.9663 31.2125 22.9858 31.4498 23.1045C31.687 23.2231 31.8674 23.4311 31.9513 23.6827C32.0351 23.9343 32.0156 24.209 31.897 24.4462C31.7784 24.6834 31.5704 24.8638 31.3188 24.9477Z" fill="#0D3D56"/>
</g>
<defs>
<clipPath id="clip0_693_399">
<rect width="32" height="32" fill="white"/>
</clipPath>
</defs>
</svg>
