<svg width="21" height="16" viewBox="0 0 21 16" fill="none" xmlns="http://www.w3.org/2000/svg">
<path d="M19.5781 0.5H1.57812C1.37921 0.5 1.18845 0.579018 1.04779 0.71967C0.907143 0.860322 0.828125 1.05109 0.828125 1.25V14C0.828125 14.3978 0.98616 14.7794 1.26746 15.0607C1.54877 15.342 1.9303 15.5 2.32812 15.5H18.8281C19.226 15.5 19.6075 15.342 19.8888 15.0607C20.1701 14.7794 20.3281 14.3978 20.3281 14V1.25C20.3281 1.05109 20.2491 0.860322 20.1085 0.71967C19.9678 0.579018 19.777 0.5 19.5781 0.5ZM7.83219 8L2.32812 13.0447V2.95531L7.83219 8ZM8.94219 9.01719L10.0672 10.0531C10.2056 10.1801 10.3865 10.2506 10.5744 10.2506C10.7622 10.2506 10.9432 10.1801 11.0816 10.0531L12.2066 9.01719L17.6441 14H3.50656L8.94219 9.01719ZM13.3241 8L18.8281 2.95438V13.0456L13.3241 8Z" fill="#0D3D56"/>
</svg>
