<svg width="21" height="20" viewBox="0 0 21 20" fill="none" xmlns="http://www.w3.org/2000/svg">
<path d="M4.67188 12.4974H3.83854C3.39651 12.4974 2.97259 12.3218 2.66003 12.0092C2.34747 11.6967 2.17188 11.2728 2.17188 10.8307V3.33073C2.17188 2.8887 2.34747 2.46478 2.66003 2.15222C2.97259 1.83966 3.39651 1.66406 3.83854 1.66406H11.3385C11.7806 1.66406 12.2045 1.83966 12.5171 2.15222C12.8296 2.46478 13.0052 2.8887 13.0052 3.33073V4.16406M9.67188 7.4974H17.1719C18.0924 7.4974 18.8385 8.24359 18.8385 9.16406V16.6641C18.8385 17.5845 18.0924 18.3307 17.1719 18.3307H9.67188C8.7514 18.3307 8.00521 17.5845 8.00521 16.6641V9.16406C8.00521 8.24359 8.7514 7.4974 9.67188 7.4974Z" stroke="#0D3D56" stroke-width="1.67" stroke-linecap="round" stroke-linejoin="round"/>
</svg>
