<svg width="40" height="40" viewBox="0 0 40 40" fill="none" xmlns="http://www.w3.org/2000/svg">
<path d="M21.875 28.75V15C21.875 13.0109 22.6652 11.1032 24.0717 9.69669C25.4782 8.29017 27.3859 7.5 29.375 7.5C29.7065 7.5 30.0245 7.63169 30.2589 7.86611C30.4933 8.10053 30.625 8.41847 30.625 8.75C30.625 9.08152 30.4933 9.39946 30.2589 9.63388C30.0245 9.8683 29.7065 10 29.375 10C28.0502 10.0041 26.7808 10.5322 25.844 11.469C24.9072 12.4058 24.3791 13.6752 24.375 15V16.25H33.75C34.413 16.25 35.0489 16.5134 35.5178 16.9822C35.9866 17.4511 36.25 18.087 36.25 18.75V28.75C36.25 29.413 35.9866 30.0489 35.5178 30.5178C35.0489 30.9866 34.413 31.25 33.75 31.25H24.375C23.712 31.25 23.0761 30.9866 22.6072 30.5178C22.1384 30.0489 21.875 29.413 21.875 28.75ZM6.25 31.25H15.625C16.288 31.25 16.9239 30.9866 17.3928 30.5178C17.8616 30.0489 18.125 29.413 18.125 28.75V18.75C18.125 18.087 17.8616 17.4511 17.3928 16.9822C16.9239 16.5134 16.288 16.25 15.625 16.25H6.25V15C6.25412 13.6752 6.78223 12.4058 7.71902 11.469C8.65581 10.5322 9.92518 10.0041 11.25 10C11.5815 10 11.8995 9.8683 12.1339 9.63388C12.3683 9.39946 12.5 9.08152 12.5 8.75C12.5 8.41847 12.3683 8.10053 12.1339 7.86611C11.8995 7.63169 11.5815 7.5 11.25 7.5C9.26088 7.5 7.35322 8.29017 5.9467 9.69669C4.54017 11.1032 3.75 13.0109 3.75 15V28.75C3.75 29.413 4.01339 30.0489 4.48223 30.5178C4.95107 30.9866 5.58696 31.25 6.25 31.25Z" fill="#0D3D56"/>
</svg>
