<svg width="20" height="18" viewBox="0 0 20 18" fill="none" xmlns="http://www.w3.org/2000/svg">
<path d="M6.2918 17.2389C13.8371 17.2389 17.9652 10.9861 17.9652 5.56544C17.9652 5.38966 17.9613 5.20997 17.9535 5.03419C18.7566 4.45344 19.4496 3.7341 20 2.90997C19.2521 3.24272 18.458 3.46004 17.6449 3.5545C18.5011 3.04132 19.1421 2.23512 19.4492 1.28536C18.6438 1.76269 17.763 2.0994 16.8445 2.28107C16.2257 1.62353 15.4075 1.18816 14.5164 1.04227C13.6253 0.89638 12.711 1.0481 11.9148 1.47397C11.1186 1.89984 10.4848 2.57615 10.1115 3.39832C9.73825 4.22049 9.64619 5.14274 9.84961 6.02247C8.21874 5.94063 6.62328 5.51698 5.16665 4.77897C3.71002 4.04097 2.42474 3.00509 1.39414 1.73849C0.870333 2.64159 0.710047 3.71026 0.945859 4.7273C1.18167 5.74434 1.79589 6.63343 2.66367 7.21388C2.01219 7.1932 1.37498 7.01779 0.804688 6.70216V6.75294C0.804104 7.70068 1.13175 8.61938 1.73192 9.35287C2.3321 10.0864 3.16777 10.5894 4.09687 10.7764C3.49338 10.9415 2.85999 10.9656 2.2457 10.8467C2.50788 11.6618 3.01798 12.3746 3.70481 12.8858C4.39164 13.397 5.22093 13.6811 6.07695 13.6983C4.62369 14.8398 2.82848 15.459 0.980469 15.4561C0.652739 15.4556 0.325333 15.4355 0 15.3959C1.87738 16.6003 4.06128 17.24 6.2918 17.2389Z" fill="#0D3D56"/>
</svg>
