<svg width="18" height="19" viewBox="0 0 18 19" fill="none" xmlns="http://www.w3.org/2000/svg">
<g id="calendar">
<path id="Vector" opacity="0.4" d="M0 15.75C0 17.75 1 18.75 3 18.75H15C17 18.75 18 17.75 18 15.75V6.75H0V15.75Z" fill="#0D3D56"/>
<path id="Vector_2" d="M15 2.25H13.75V0.75C13.75 0.336 13.414 0 13 0C12.586 0 12.25 0.336 12.25 0.75V2.25H5.75V0.75C5.75 0.336 5.414 0 5 0C4.586 0 4.25 0.336 4.25 0.75V2.25H3C1 2.25 0 3.25 0 5.25V6.75H18V5.25C18 3.25 17 2.25 15 2.25Z" fill="#0D3D56"/>
<path id="Vector_3" d="M5.02075 11.75C4.46875 11.75 4.01562 11.302 4.01562 10.75C4.01562 10.198 4.45874 9.75 5.01074 9.75H5.02075C5.57375 9.75 6.02075 10.198 6.02075 10.75C6.02075 11.302 5.57275 11.75 5.02075 11.75ZM10.0208 10.75C10.0208 10.198 9.57375 9.75 9.02075 9.75H9.01074C8.45874 9.75 8.01562 10.198 8.01562 10.75C8.01562 11.302 8.46875 11.75 9.02075 11.75C9.57275 11.75 10.0208 11.302 10.0208 10.75ZM14.0208 10.75C14.0208 10.198 13.5738 9.75 13.0208 9.75H13.0107C12.4587 9.75 12.0156 10.198 12.0156 10.75C12.0156 11.302 12.4688 11.75 13.0208 11.75C13.5728 11.75 14.0208 11.302 14.0208 10.75ZM6.02075 14.75C6.02075 14.198 5.57375 13.75 5.02075 13.75H5.01074C4.45874 13.75 4.01562 14.198 4.01562 14.75C4.01562 15.302 4.46875 15.75 5.02075 15.75C5.57275 15.75 6.02075 15.302 6.02075 14.75ZM10.0208 14.75C10.0208 14.198 9.57375 13.75 9.02075 13.75H9.01074C8.45874 13.75 8.01562 14.198 8.01562 14.75C8.01562 15.302 8.46875 15.75 9.02075 15.75C9.57275 15.75 10.0208 15.302 10.0208 14.75ZM14.0208 14.75C14.0208 14.198 13.5738 13.75 13.0208 13.75H13.0107C12.4587 13.75 12.0156 14.198 12.0156 14.75C12.0156 15.302 12.4688 15.75 13.0208 15.75C13.5728 15.75 14.0208 15.302 14.0208 14.75Z" fill="#0D3D56"/>
</g>
</svg>
