<svg width="13" height="14" viewBox="0 0 13 14" fill="none" xmlns="http://www.w3.org/2000/svg">
<path d="M0.585786 9.82888C-0.195262 10.6099 -0.195262 11.8763 0.585787 12.6573C1.36684 13.4384 2.63317 13.4384 3.41421 12.6573L6.24264 9.82888L9.07107 12.6573C9.85212 13.4384 11.1184 13.4384 11.8995 12.6573C12.6805 11.8763 12.6805 10.6099 11.8995 9.82888L9.07107 7.00045L11.8995 4.17203C12.6805 3.39098 12.6805 2.12465 11.8995 1.3436C11.1184 0.562551 9.85212 0.562551 9.07107 1.3436L6.24264 4.17203L3.41421 1.3436C2.63317 0.56255 1.36684 0.56255 0.585787 1.3436C-0.195262 2.12465 -0.195261 3.39098 0.585787 4.17203L3.41421 7.00045L0.585786 9.82888Z" fill="#CC4B4C"/>
</svg>
