<svg width="22" height="19" viewBox="0 0 22 19" fill="none" xmlns="http://www.w3.org/2000/svg">
<path d="M20.75 17.25H20.25V8C20.25 6.67 19.58 6 18.25 6H16.75V17.25H12.75V15C12.75 13.896 11.855 13 10.75 13C9.646 13 8.75 13.896 8.75 15V17.25H4.75V6H3.25C1.92 6 1.25 6.67 1.25 8V17.25H0.75C0.336 17.25 0 17.586 0 18C0 18.414 0.336 18.75 0.75 18.75H20.75C21.164 18.75 21.5 18.414 21.5 18C21.5 17.586 21.164 17.25 20.75 17.25Z" fill="#0D3D56"/>
<path opacity="0.4" d="M4.75 18V6V3C4.75 1 5.75 0 7.75 0H13.75C15.75 0 16.75 1 16.75 3V6V18H4.75Z" fill="#9AAEB8"/>
<path d="M9.25 4.75H8.25C7.836 4.75 7.5 4.414 7.5 4C7.5 3.586 7.836 3.25 8.25 3.25H9.25C9.664 3.25 10 3.586 10 4C10 4.414 9.664 4.75 9.25 4.75ZM14 4C14 3.586 13.664 3.25 13.25 3.25H12.25C11.836 3.25 11.5 3.586 11.5 4C11.5 4.414 11.836 4.75 12.25 4.75H13.25C13.664 4.75 14 4.414 14 4ZM10 7C10 6.586 9.664 6.25 9.25 6.25H8.25C7.836 6.25 7.5 6.586 7.5 7C7.5 7.414 7.836 7.75 8.25 7.75H9.25C9.664 7.75 10 7.414 10 7ZM14 7C14 6.586 13.664 6.25 13.25 6.25H12.25C11.836 6.25 11.5 6.586 11.5 7C11.5 7.414 11.836 7.75 12.25 7.75H13.25C13.664 7.75 14 7.414 14 7ZM10 10C10 9.586 9.664 9.25 9.25 9.25H8.25C7.836 9.25 7.5 9.586 7.5 10C7.5 10.414 7.836 10.75 8.25 10.75H9.25C9.664 10.75 10 10.414 10 10ZM14 10C14 9.586 13.664 9.25 13.25 9.25H12.25C11.836 9.25 11.5 9.586 11.5 10C11.5 10.414 11.836 10.75 12.25 10.75H13.25C13.664 10.75 14 10.414 14 10Z" fill="#0D3D56"/>
</svg>
