<svg width="18" height="19" viewBox="0 0 18 19" fill="none" xmlns="http://www.w3.org/2000/svg">
<g id="position">
<path id="Vector" opacity="0.4" d="M18 9.19946V15.2495C18 17.2495 17 18.2495 15 18.2495H3C1 18.2495 0 17.2495 0 15.2495V9.18945C0.3 9.53945 0.679997 9.8095 1.13 9.9895C2.23 10.4195 3.74 10.9296 5.5 11.2896C5.91 11.3696 6.30999 11.1695 6.53999 10.8295C7.07999 10.0195 7.98 9.42957 9 9.42957C10.02 9.42957 10.92 10.0195 11.46 10.8295C11.7 11.1695 12.1 11.3696 12.51 11.2896C14.27 10.9296 15.78 10.4195 16.87 9.9895C17.31 9.8095 17.7 9.53946 18 9.19946Z" fill="#0D3D56"/>
<path id="Vector_2" d="M18 6.25V9.19995C17.7 9.53995 17.31 9.80999 16.87 9.98999C15.78 10.42 14.27 10.93 12.51 11.29C12.1 11.37 11.7 11.17 11.46 10.83C10.92 10.02 10.02 9.43005 9 9.43005C7.98 9.43005 7.07999 10.02 6.53999 10.83C6.30999 11.17 5.91 11.37 5.5 11.29C3.74 10.93 2.23 10.42 1.13 9.98999C0.679997 9.80999 0.3 9.53994 0 9.18994V6.25C0 4.25 1 3.25 3 3.25H15C17 3.25 18 4.25 18 6.25Z" fill="#0D3D56"/>
<path id="Vector_3" opacity="0.4" d="M13.75 1.75V3.25H12.25V1.75C12.25 1.61 12.14 1.5 12 1.5H6C5.86 1.5 5.75 1.61 5.75 1.75V3.25H4.25V1.75C4.25 0.79 5.03 0 6 0H12C12.96 0 13.75 0.79 13.75 1.75Z" fill="#0D3D56"/>
<path id="Vector_4" d="M9.002 13.25C8.451 13.25 8 12.802 8 12.25C8 11.698 8.443 11.25 8.994 11.25H9.002C9.553 11.25 10 11.698 10 12.25C10 12.802 9.553 13.25 9.002 13.25Z" fill="#0D3D56"/>
</g>
</svg>
