<svg width="19" height="19" viewBox="0 0 19 19" fill="none" xmlns="http://www.w3.org/2000/svg">
<rect width="19" height="19" fill="#D0D0D0"/>
<g id="Application v2" clip-path="url(#clip0_0_1)">
<rect width="1440" height="4664" transform="translate(-976 -691)" fill="white"/>
<g id="Frame 1171275191">
<rect x="-24" y="-236" width="422" height="842" rx="12" fill="#F8F9FA"/>
<g id="Frame 1171275190">
<g id="Frame 1171275189">
<g id="Frame 1000011041">
<g id="Frame 1171275181">
<g id="Group 1171275928">
<path id="Vector" d="M12.3281 7.06494C12.3281 5.94894 11.5711 4.97803 10.4841 4.70203L9.03714 4.34302C8.83114 4.29102 8.65513 4.17598 8.52213 4.00598C8.39713 3.84798 8.32812 3.64504 8.32812 3.43604C8.32812 2.92004 8.74712 2.50098 9.26312 2.50098H9.89313C10.3701 2.50098 10.7691 2.85896 10.8231 3.33496C10.8691 3.74696 11.2491 4.04597 11.6521 3.99597C12.0641 3.94997 12.3601 3.57899 12.3131 3.16699C12.1901 2.07299 11.3581 1.22104 10.3081 1.04004V0.75C10.3081 0.336 9.97214 0 9.55814 0C9.14414 0 8.80814 0.336 8.80814 0.75V1.04602C7.68214 1.26002 6.82812 2.24806 6.82812 3.43506C6.82812 3.98006 7.01213 4.51303 7.34113 4.93103C7.67313 5.35703 8.14413 5.66397 8.67313 5.79797L10.1201 6.15698C10.5371 6.26298 10.8291 6.63594 10.8291 7.06494C10.8291 7.31294 10.7311 7.54698 10.5531 7.72498C10.3761 7.90198 10.1421 8 9.89413 8H9.26413C8.78713 8 8.38814 7.64202 8.33414 7.16602C8.28814 6.75402 7.90713 6.45601 7.50513 6.505C7.09313 6.551 6.79712 6.92198 6.84412 7.33398C6.96612 8.41398 7.77711 9.26201 8.80911 9.45801V9.75C8.80911 10.164 9.14511 10.5 9.55911 10.5C9.97311 10.5 10.3091 10.164 10.3091 9.75V9.45898C10.8001 9.37498 11.2541 9.14603 11.6141 8.78503C12.0741 8.32503 12.3281 7.71394 12.3281 7.06494Z" fill="#0D3D56"/>
<path id="Vector_2" d="M3 19H1C0.448 19 0 18.552 0 18V14C0 13.448 0.448 13 1 13H3C3.552 13 4 13.448 4 14V18C4 18.552 3.552 19 3 19Z" fill="#0D3D56"/>
<path id="Vector_3" opacity="0.4" d="M18.5781 14.11C18.5781 14.51 18.3981 14.9 18.0781 15.15L14.6781 17.87C13.9681 18.44 13.0881 18.75 12.1781 18.75H6.57812C5.47812 18.75 4.57812 17.85 4.57812 16.75V14.75C4.57812 13.65 5.47812 12.75 6.57812 12.75H11.6981C12.3181 12.75 12.8281 13.25 12.8281 13.87C12.8281 14.5 12.3181 15 11.6981 15H8.57812C8.16812 15 7.82812 15.34 7.82812 15.75C7.82812 16.16 8.16812 16.5 8.57812 16.5H11.6981C12.9981 16.5 14.0781 15.5499 14.2881 14.3199L16.5581 12.96C16.7781 12.83 17.0081 12.77 17.2381 12.77C17.9381 12.77 18.5781 13.33 18.5781 14.11Z" fill="#0D3D56"/>
</g>
</g>
</g>
</g>
</g>
</g>
</g>
<defs>
<clipPath id="clip0_0_1">
<rect width="1440" height="4664" fill="white" transform="translate(-976 -691)"/>
</clipPath>
</defs>
</svg>
