<svg width="20" height="20" viewBox="0 0 20 20" fill="none" xmlns="http://www.w3.org/2000/svg">
<path d="M20 17V14C20 12.3431 18.6569 11 17 11H16C15.3705 11 14.7777 11.2964 14.4 11.8L13.2 13.4C12.4446 14.4072 11.259 15 10 15C8.74097 15 7.55542 14.4072 6.8 13.4L5.6 11.8C5.22229 11.2964 4.62951 11 4 11H3C1.34315 11 0 12.3431 0 14V17C0 18.6569 1.34315 20 3 20H17C18.6569 20 20 18.6569 20 17Z" fill="#0D3D56"/>
<path opacity="0.4" fill-rule="evenodd" clip-rule="evenodd" d="M3 11H4C4.62951 11 5.22229 11.2964 5.6 11.8L6.8 13.4C7.55542 14.4072 8.74097 15 10 15C11.259 15 12.4446 14.4072 13.2 13.4L14.4 11.8C14.7777 11.2964 15.3705 11 16 11H17C17.3506 11 17.6872 11.0602 18 11.1707V4C18 1.79086 16.2091 0 14 0H6C3.79086 0 2 1.79086 2 4V11.1707C2.31278 11.0602 2.64936 11 3 11ZM9.11612 4.94449C9.15858 4.90202 9.20334 4.86325 9.25 4.82817V8.99994C9.25 9.41416 9.58579 9.74994 10 9.74994C10.4142 9.74994 10.75 9.41416 10.75 8.99994V4.82817C10.7967 4.86325 10.8414 4.90202 10.8839 4.94449L12.4697 6.53027C12.7626 6.82316 13.2374 6.82316 13.5303 6.53027C13.8232 6.23738 13.8232 5.76251 13.5303 5.46961L11.9445 3.88383C10.8706 2.80988 9.1294 2.80988 8.05546 3.88383L6.46967 5.46961C6.17678 5.76251 6.17678 6.23738 6.46967 6.53027C6.76256 6.82316 7.23744 6.82316 7.53033 6.53027L9.11612 4.94449Z" fill="#0D3D56"/>
</svg>
