<svg width="109" height="48" viewBox="0 0 109 48" fill="none" xmlns="http://www.w3.org/2000/svg">
<rect width="109" height="48" rx="8" fill="#FF540A" fill-opacity="0.12"/>
<rect x="0.5" y="0.5" width="108" height="47" rx="7.5" stroke="#0D3D56" stroke-opacity="0.1"/>
<g clip-path="url(#clip0_483_297)">
<path d="M37.75 24.0009C37.75 24.0487 37.75 24.0947 37.75 24.1434C37.7181 25.4803 37.2222 27.0009 35.125 27.0009C32.9556 27.0009 32.5 25.3697 32.5 24.0009V20.2509C32.5002 20.1481 32.4793 20.0464 32.4385 19.952C32.3978 19.8576 32.3381 19.7726 32.2631 19.7022C32.1881 19.6319 32.0994 19.5777 32.0026 19.5431C31.9058 19.5085 31.8029 19.4941 31.7003 19.5009C31.5071 19.5175 31.3274 19.6068 31.1974 19.7507C31.0675 19.8945 30.9969 20.0824 31 20.2762V20.6512C30.3229 20.0444 29.4779 19.6569 28.5763 19.5398C27.6747 19.4227 26.7587 19.5814 25.9491 19.9951C25.1395 20.4088 24.4741 21.058 24.0407 21.8573C23.6074 22.6565 23.4262 23.5683 23.5213 24.4726C23.6163 25.3768 23.9829 26.231 24.573 26.9227C25.1631 27.6145 25.9488 28.1112 26.8267 28.3476C27.7047 28.584 28.6336 28.5488 29.4912 28.2469C30.3488 27.9449 31.0948 27.3902 31.6309 26.6559C31.7247 26.8199 31.8306 26.9766 31.9478 27.1247C32.4513 27.7509 33.4103 28.5009 35.125 28.5009C35.4146 28.5019 35.7037 28.4784 35.9894 28.4306C36.06 28.4188 36.1325 28.4275 36.1983 28.4556C36.2642 28.4838 36.3206 28.5301 36.3609 28.5893C36.4012 28.6485 36.4238 28.7179 36.4259 28.7895C36.428 28.861 36.4096 28.9317 36.3728 28.9931C35.4914 30.4717 34.2343 31.6907 32.7294 32.5263C31.2244 33.362 29.5251 33.7845 27.8041 33.7509C22.6684 33.6478 18.4562 29.5191 18.2575 24.3862C18.2067 23.0909 18.4147 21.7984 18.8693 20.5844C19.324 19.3704 20.0162 18.2592 20.9054 17.3159C21.7946 16.3726 22.863 15.6161 24.0481 15.0907C25.2332 14.5653 26.5112 14.2814 27.8073 14.2558C29.1034 14.2302 30.3916 14.4633 31.5965 14.9415C32.8015 15.4197 33.899 16.1334 34.8248 17.0408C35.7506 17.9482 36.4861 19.0311 36.9884 20.2262C37.4907 21.4213 37.7496 22.7046 37.75 24.0009ZM25 24.0009C25 24.5943 25.1759 25.1743 25.5056 25.6676C25.8352 26.161 26.3038 26.5455 26.8519 26.7726C27.4001 26.9996 28.0033 27.059 28.5853 26.9433C29.1672 26.8275 29.7018 26.5418 30.1213 26.1223C30.5409 25.7027 30.8266 25.1681 30.9424 24.5862C31.0581 24.0043 30.9987 23.4011 30.7716 22.8529C30.5446 22.3047 30.1601 21.8362 29.6667 21.5065C29.1734 21.1769 28.5933 21.0009 28 21.0009C27.2044 21.0009 26.4413 21.317 25.8787 21.8796C25.3161 22.4422 25 23.2053 25 24.0009Z" fill="#FF540A"/>
</g>
<path d="M49.1477 30V18.3636H56.7159V20.1307H51.2557V23.2898H56.3239V25.0568H51.2557V28.233H56.7614V30H49.1477ZM58.4556 30V21.2727H60.4215V22.7557H60.5238C60.7056 22.2557 61.0067 21.8655 61.4272 21.5852C61.8476 21.3011 62.3495 21.1591 62.9328 21.1591C63.5238 21.1591 64.0219 21.303 64.4272 21.5909C64.8363 21.875 65.1241 22.2633 65.2908 22.7557H65.3817C65.5749 22.2708 65.9006 21.8845 66.359 21.5966C66.8211 21.3049 67.3684 21.1591 68.001 21.1591C68.8041 21.1591 69.4594 21.4129 69.9669 21.9205C70.4745 22.428 70.7283 23.1686 70.7283 24.142V30H68.6658V24.4602C68.6658 23.9186 68.5219 23.5227 68.234 23.2727C67.9461 23.0189 67.5938 22.892 67.1772 22.892C66.6809 22.892 66.2927 23.0473 66.0124 23.358C65.7359 23.6648 65.5976 24.0644 65.5976 24.5568V30H63.5806V24.375C63.5806 23.9242 63.4442 23.5644 63.1715 23.2955C62.9025 23.0265 62.5503 22.892 62.1147 22.892C61.8192 22.892 61.5503 22.9678 61.3078 23.1193C61.0654 23.267 60.8722 23.4773 60.7283 23.75C60.5844 24.0189 60.5124 24.3333 60.5124 24.6932V30H58.4556ZM75.0063 30.1761C74.4533 30.1761 73.9552 30.0777 73.512 29.8807C73.0726 29.6799 72.7241 29.3845 72.4665 28.9943C72.2127 28.6042 72.0859 28.1231 72.0859 27.5511C72.0859 27.0587 72.1768 26.6515 72.3586 26.3295C72.5404 26.0076 72.7885 25.75 73.1029 25.5568C73.4173 25.3636 73.7715 25.2178 74.1654 25.1193C74.5631 25.017 74.9741 24.9432 75.3984 24.8977C75.9097 24.8447 76.3245 24.7973 76.6427 24.7557C76.9609 24.7102 77.1919 24.642 77.3359 24.5511C77.4836 24.4564 77.5574 24.3106 77.5574 24.1136V24.0795C77.5574 23.6515 77.4306 23.3201 77.1768 23.0852C76.923 22.8504 76.5574 22.733 76.0802 22.733C75.5764 22.733 75.1768 22.8428 74.8813 23.0625C74.5896 23.2822 74.3927 23.5417 74.2904 23.8409L72.3699 23.5682C72.5215 23.0379 72.7715 22.5947 73.1199 22.2386C73.4684 21.8788 73.8946 21.6098 74.3984 21.4318C74.9021 21.25 75.459 21.1591 76.0688 21.1591C76.4893 21.1591 76.9078 21.2083 77.3245 21.3068C77.7412 21.4053 78.1218 21.5682 78.4665 21.7955C78.8112 22.0189 79.0877 22.3239 79.2961 22.7102C79.5082 23.0966 79.6143 23.5795 79.6143 24.1591V30H77.637V28.8011H77.5688C77.4438 29.0436 77.2677 29.2708 77.0404 29.483C76.8169 29.6913 76.5347 29.8598 76.1938 29.9886C75.8567 30.1136 75.4609 30.1761 75.0063 30.1761ZM75.5404 28.6648C75.9533 28.6648 76.3112 28.5833 76.6143 28.4205C76.9173 28.2538 77.1502 28.0341 77.3131 27.7614C77.4798 27.4886 77.5631 27.1913 77.5631 26.8693V25.8409C77.4987 25.8939 77.3889 25.9432 77.2336 25.9886C77.0821 26.0341 76.9116 26.0739 76.7222 26.108C76.5328 26.142 76.3453 26.1723 76.1597 26.1989C75.9741 26.2254 75.8131 26.2481 75.6768 26.267C75.3699 26.3087 75.0953 26.3769 74.8529 26.4716C74.6105 26.5663 74.4192 26.6989 74.279 26.8693C74.1389 27.036 74.0688 27.2519 74.0688 27.517C74.0688 27.8958 74.2071 28.1818 74.4836 28.375C74.7601 28.5682 75.1124 28.6648 75.5404 28.6648ZM81.3624 30V21.2727H83.4193V30H81.3624ZM82.3965 20.0341C82.0708 20.0341 81.7905 19.9261 81.5556 19.7102C81.3208 19.4905 81.2034 19.2273 81.2034 18.9205C81.2034 18.6098 81.3208 18.3466 81.5556 18.1307C81.7905 17.911 82.0708 17.8011 82.3965 17.8011C82.7261 17.8011 83.0064 17.911 83.2374 18.1307C83.4723 18.3466 83.5897 18.6098 83.5897 18.9205C83.5897 19.2273 83.4723 19.4905 83.2374 19.7102C83.0064 19.9261 82.7261 20.0341 82.3965 20.0341ZM87.2711 18.3636V30H85.2143V18.3636H87.2711Z" fill="#FF540A"/>
<defs>
<clipPath id="clip0_483_297">
<rect width="24" height="24" fill="white" transform="translate(16 12)"/>
</clipPath>
</defs>
</svg>
