<svg width="142" height="48" viewBox="0 0 142 48" fill="none" xmlns="http://www.w3.org/2000/svg">
<rect width="142" height="48" rx="8" fill="#0A88FF" fill-opacity="0.12"/>
<rect x="0.5" y="0.5" width="141" height="47" rx="7.5" stroke="#0D3D56" stroke-opacity="0.1"/>
<g clip-path="url(#clip0_693_303)">
<path d="M37.75 24.0008C37.7469 26.3838 36.8726 28.6834 35.2917 30.4664C33.7109 32.2495 31.5326 33.393 29.1671 33.6815C29.1145 33.6874 29.0611 33.6821 29.0107 33.666C28.9602 33.6498 28.9137 33.6232 28.8743 33.5877C28.8348 33.5523 28.8034 33.5089 28.782 33.4604C28.7605 33.4119 28.7496 33.3595 28.75 33.3065V26.2508H31C31.1028 26.2511 31.2045 26.2301 31.2989 26.1894C31.3933 26.1486 31.4783 26.0889 31.5487 26.0139C31.619 25.9389 31.6732 25.8502 31.7078 25.7534C31.7424 25.6566 31.7568 25.5537 31.75 25.4511C31.7334 25.2583 31.6444 25.0788 31.5009 24.9489C31.3574 24.819 31.1701 24.7482 30.9765 24.7508H28.75V22.5008C28.75 22.103 28.908 21.7215 29.1893 21.4402C29.4706 21.1589 29.8521 21.0008 30.25 21.0008H31.75C31.8528 21.0011 31.9545 20.9801 32.0489 20.9394C32.1433 20.8986 32.2283 20.8389 32.2987 20.7639C32.369 20.6889 32.4232 20.6002 32.4578 20.5034C32.4924 20.4066 32.5068 20.3037 32.5 20.2011C32.4834 20.008 32.3941 19.8282 32.2502 19.6983C32.1063 19.5683 31.9185 19.4977 31.7246 19.5008H30.25C29.4543 19.5008 28.6912 19.8169 28.1286 20.3795C27.566 20.9421 27.25 21.7052 27.25 22.5008V24.7508H25C24.8971 24.7506 24.7954 24.7715 24.701 24.8123C24.6066 24.853 24.5216 24.9128 24.4513 24.9878C24.3809 25.0628 24.3268 25.1514 24.2921 25.2482C24.2575 25.345 24.2431 25.4479 24.25 25.5505C24.2665 25.7437 24.3558 25.9234 24.4997 26.0534C24.6436 26.1834 24.8314 26.2539 25.0253 26.2508H27.25V33.3083C27.2503 33.3612 27.2394 33.4136 27.218 33.462C27.1967 33.5105 27.1653 33.5538 27.126 33.5892C27.0866 33.6246 27.0403 33.6513 26.9899 33.6676C26.9395 33.6838 26.8863 33.6891 26.8337 33.6833C24.405 33.3876 22.1758 32.1907 20.5874 30.3298C18.999 28.4688 18.1672 26.0793 18.2565 23.6343C18.444 18.5718 22.5446 14.4561 27.6109 14.2593C28.9225 14.2085 30.231 14.4227 31.4579 14.8892C32.6848 15.3557 33.8051 16.0649 34.7516 16.9744C35.6981 17.8838 36.4515 18.9748 36.9667 20.1821C37.4819 21.3894 37.7483 22.6882 37.75 24.0008Z" fill="#0A88FF"/>
</g>
<path d="M49.1477 30V18.3636H56.6023V20.1307H51.2557V23.2898H56.0909V25.0568H51.2557V30H49.1477ZM60.5451 30.1761C59.992 30.1761 59.4939 30.0777 59.0507 29.8807C58.6113 29.6799 58.2629 29.3845 58.0053 28.9943C57.7515 28.6042 57.6246 28.1231 57.6246 27.5511C57.6246 27.0587 57.7155 26.6515 57.8973 26.3295C58.0791 26.0076 58.3273 25.75 58.6416 25.5568C58.956 25.3636 59.3102 25.2178 59.7041 25.1193C60.1019 25.017 60.5129 24.9432 60.9371 24.8977C61.4485 24.8447 61.8632 24.7973 62.1814 24.7557C62.4996 24.7102 62.7307 24.642 62.8746 24.5511C63.0223 24.4564 63.0962 24.3106 63.0962 24.1136V24.0795C63.0962 23.6515 62.9693 23.3201 62.7155 23.0852C62.4617 22.8504 62.0962 22.733 61.6189 22.733C61.1151 22.733 60.7155 22.8428 60.4201 23.0625C60.1284 23.2822 59.9314 23.5417 59.8291 23.8409L57.9087 23.5682C58.0602 23.0379 58.3102 22.5947 58.6587 22.2386C59.0072 21.8788 59.4333 21.6098 59.9371 21.4318C60.4409 21.25 60.9977 21.1591 61.6076 21.1591C62.028 21.1591 62.4466 21.2083 62.8632 21.3068C63.2799 21.4053 63.6606 21.5682 64.0053 21.7955C64.35 22.0189 64.6265 22.3239 64.8348 22.7102C65.047 23.0966 65.153 23.5795 65.153 24.1591V30H63.1757V28.8011H63.1076C62.9826 29.0436 62.8064 29.2708 62.5791 29.483C62.3557 29.6913 62.0735 29.8598 61.7326 29.9886C61.3954 30.1136 60.9996 30.1761 60.5451 30.1761ZM61.0791 28.6648C61.492 28.6648 61.85 28.5833 62.153 28.4205C62.456 28.2538 62.689 28.0341 62.8519 27.7614C63.0185 27.4886 63.1019 27.1913 63.1019 26.8693V25.8409C63.0375 25.8939 62.9276 25.9432 62.7723 25.9886C62.6208 26.0341 62.4504 26.0739 62.261 26.108C62.0716 26.142 61.8841 26.1723 61.6985 26.1989C61.5129 26.2254 61.3519 26.2481 61.2155 26.267C60.9087 26.3087 60.6341 26.3769 60.3916 26.4716C60.1492 26.5663 59.9579 26.6989 59.8178 26.8693C59.6776 27.036 59.6076 27.2519 59.6076 27.517C59.6076 27.8958 59.7458 28.1818 60.0223 28.375C60.2988 28.5682 60.6511 28.6648 61.0791 28.6648ZM70.708 30.1705C69.8368 30.1705 69.0887 29.9792 68.4637 29.5966C67.8425 29.214 67.3633 28.6856 67.0262 28.0114C66.6929 27.3333 66.5262 26.553 66.5262 25.6705C66.5262 24.7841 66.6966 24.0019 67.0376 23.3239C67.3785 22.642 67.8595 22.1117 68.4807 21.733C69.1057 21.3504 69.8444 21.1591 70.6966 21.1591C71.405 21.1591 72.0319 21.2898 72.5773 21.5511C73.1266 21.8087 73.5641 22.1742 73.8898 22.6477C74.2156 23.1174 74.4012 23.6667 74.4466 24.2955H72.4807C72.4012 23.875 72.2118 23.5246 71.9126 23.2443C71.6171 22.9602 71.2213 22.8182 70.7251 22.8182C70.3046 22.8182 69.9353 22.9318 69.6171 23.1591C69.2989 23.3826 69.0508 23.7045 68.8728 24.125C68.6985 24.5455 68.6114 25.0492 68.6114 25.6364C68.6114 26.2311 68.6985 26.7424 68.8728 27.1705C69.047 27.5947 69.2913 27.9223 69.6057 28.1534C69.9239 28.3807 70.297 28.4943 70.7251 28.4943C71.0281 28.4943 71.2989 28.4375 71.5376 28.3239C71.78 28.2064 71.9826 28.0379 72.1455 27.8182C72.3084 27.5985 72.4201 27.3314 72.4807 27.017H74.4466C74.3974 27.6345 74.2156 28.1818 73.9012 28.6591C73.5868 29.1326 73.1588 29.5038 72.6171 29.7727C72.0754 30.0379 71.4391 30.1705 70.708 30.1705ZM79.6792 30.1705C78.8042 30.1705 78.0485 29.9886 77.4122 29.625C76.7796 29.2576 76.2928 28.7386 75.9519 28.0682C75.611 27.3939 75.4406 26.6004 75.4406 25.6875C75.4406 24.7898 75.611 24.0019 75.9519 23.3239C76.2966 22.642 76.7777 22.1117 77.3951 21.733C78.0125 21.3504 78.7379 21.1591 79.5713 21.1591C80.1091 21.1591 80.6167 21.2462 81.094 21.4205C81.575 21.5909 81.9993 21.8561 82.3667 22.2159C82.7379 22.5758 83.0296 23.0341 83.2417 23.5909C83.4538 24.1439 83.5599 24.803 83.5599 25.5682V26.1989H76.4065V24.8125H81.5883C81.5845 24.4186 81.4993 24.0682 81.3326 23.7614C81.1659 23.4508 80.933 23.2064 80.6338 23.0284C80.3383 22.8504 79.9936 22.7614 79.5997 22.7614C79.1792 22.7614 78.8099 22.8636 78.4917 23.0682C78.1735 23.2689 77.9254 23.5341 77.7474 23.8636C77.5731 24.1894 77.4841 24.5473 77.4803 24.9375V26.1477C77.4803 26.6553 77.5731 27.0909 77.7588 27.4545C77.9444 27.8144 78.2038 28.0909 78.5372 28.2841C78.8705 28.4735 79.2606 28.5682 79.7076 28.5682C80.0069 28.5682 80.2777 28.5265 80.5201 28.4432C80.7625 28.3561 80.9728 28.2292 81.1508 28.0625C81.3288 27.8958 81.4633 27.6894 81.5542 27.4432L83.4747 27.6591C83.3534 28.1667 83.1224 28.6098 82.7815 28.9886C82.4444 29.3636 82.0125 29.6553 81.486 29.8636C80.9595 30.0682 80.3572 30.1705 79.6792 30.1705ZM85.0709 30V18.3636H87.1277V22.7159H87.2129C87.319 22.5038 87.4686 22.2784 87.6618 22.0398C87.8549 21.7973 88.1163 21.5909 88.4459 21.4205C88.7754 21.2462 89.1959 21.1591 89.7072 21.1591C90.3815 21.1591 90.9894 21.3314 91.5311 21.6761C92.0765 22.017 92.5084 22.5227 92.8265 23.1932C93.1485 23.8598 93.3095 24.678 93.3095 25.6477C93.3095 26.6061 93.1523 27.4205 92.8379 28.0909C92.5235 28.7614 92.0955 29.2727 91.5538 29.625C91.0121 29.9773 90.3985 30.1534 89.7129 30.1534C89.2129 30.1534 88.7981 30.0701 88.4686 29.9034C88.139 29.7367 87.8739 29.536 87.6731 29.3011C87.4762 29.0625 87.3227 28.8371 87.2129 28.625H87.0936V30H85.0709ZM87.0879 25.6364C87.0879 26.2008 87.1674 26.6951 87.3265 27.1193C87.4894 27.5436 87.7224 27.875 88.0254 28.1136C88.3322 28.3485 88.7034 28.4659 89.139 28.4659C89.5936 28.4659 89.9743 28.3447 90.2811 28.1023C90.5879 27.8561 90.819 27.5208 90.9743 27.0966C91.1334 26.6686 91.2129 26.1818 91.2129 25.6364C91.2129 25.0947 91.1352 24.6136 90.9799 24.1932C90.8246 23.7727 90.5936 23.4432 90.2868 23.2045C89.9799 22.9659 89.5974 22.8466 89.139 22.8466C88.6996 22.8466 88.3265 22.9621 88.0197 23.1932C87.7129 23.4242 87.4799 23.7481 87.3209 24.1648C87.1656 24.5814 87.0879 25.072 87.0879 25.6364ZM98.5449 30.1705C97.6926 30.1705 96.954 29.983 96.329 29.608C95.704 29.233 95.2191 28.7083 94.8744 28.0341C94.5335 27.3598 94.3631 26.572 94.3631 25.6705C94.3631 24.7689 94.5335 23.9792 94.8744 23.3011C95.2191 22.6231 95.704 22.0966 96.329 21.7216C96.954 21.3466 97.6926 21.1591 98.5449 21.1591C99.3972 21.1591 100.136 21.3466 100.761 21.7216C101.386 22.0966 101.869 22.6231 102.21 23.3011C102.554 23.9792 102.727 24.7689 102.727 25.6705C102.727 26.572 102.554 27.3598 102.21 28.0341C101.869 28.7083 101.386 29.233 100.761 29.608C100.136 29.983 99.3972 30.1705 98.5449 30.1705ZM98.5563 28.5227C99.0184 28.5227 99.4047 28.3958 99.7153 28.142C100.026 27.8845 100.257 27.5398 100.409 27.108C100.564 26.6761 100.641 26.1951 100.641 25.6648C100.641 25.1307 100.564 24.6477 100.409 24.2159C100.257 23.7803 100.026 23.4337 99.7153 23.1761C99.4047 22.9186 99.0184 22.7898 98.5563 22.7898C98.0828 22.7898 97.6888 22.9186 97.3744 23.1761C97.0638 23.4337 96.8309 23.7803 96.6756 24.2159C96.5241 24.6477 96.4483 25.1307 96.4483 25.6648C96.4483 26.1951 96.5241 26.6761 96.6756 27.108C96.8309 27.5398 97.0638 27.8845 97.3744 28.142C97.6888 28.3958 98.0828 28.5227 98.5563 28.5227ZM107.959 30.1705C107.107 30.1705 106.368 29.983 105.743 29.608C105.118 29.233 104.634 28.7083 104.289 28.0341C103.948 27.3598 103.777 26.572 103.777 25.6705C103.777 24.7689 103.948 23.9792 104.289 23.3011C104.634 22.6231 105.118 22.0966 105.743 21.7216C106.368 21.3466 107.107 21.1591 107.959 21.1591C108.812 21.1591 109.55 21.3466 110.175 21.7216C110.8 22.0966 111.283 22.6231 111.624 23.3011C111.969 23.9792 112.141 24.7689 112.141 25.6705C112.141 26.572 111.969 27.3598 111.624 28.0341C111.283 28.7083 110.8 29.233 110.175 29.608C109.55 29.983 108.812 30.1705 107.959 30.1705ZM107.971 28.5227C108.433 28.5227 108.819 28.3958 109.13 28.142C109.44 27.8845 109.671 27.5398 109.823 27.108C109.978 26.6761 110.056 26.1951 110.056 25.6648C110.056 25.1307 109.978 24.6477 109.823 24.2159C109.671 23.7803 109.44 23.4337 109.13 23.1761C108.819 22.9186 108.433 22.7898 107.971 22.7898C107.497 22.7898 107.103 22.9186 106.789 23.1761C106.478 23.4337 106.245 23.7803 106.09 24.2159C105.938 24.6477 105.863 25.1307 105.863 25.6648C105.863 26.1951 105.938 26.6761 106.09 27.108C106.245 27.5398 106.478 27.8845 106.789 28.142C107.103 28.3958 107.497 28.5227 107.971 28.5227ZM115.442 27.2614L115.436 24.7784H115.766L118.902 21.2727H121.305L117.448 25.5682H117.021L115.442 27.2614ZM113.567 30V18.3636H115.624V30H113.567ZM119.044 30L116.203 26.0284L117.59 24.5795L121.504 30H119.044Z" fill="#0A88FF"/>
<defs>
<clipPath id="clip0_693_303">
<rect width="24" height="24" fill="white" transform="translate(16 12)"/>
</clipPath>
</defs>
</svg>
