<svg width="132" height="48" viewBox="0 0 132 48" fill="none" xmlns="http://www.w3.org/2000/svg">
<rect width="132" height="48" rx="8" fill="#007BB6" fill-opacity="0.12"/>
<rect x="0.5" y="0.5" width="131" height="47" rx="7.5" stroke="#0D3D56" stroke-opacity="0.1"/>
<g clip-path="url(#clip0_693_313)">
<path d="M36.25 14.25H19.75C19.3522 14.25 18.9706 14.408 18.6893 14.6893C18.408 14.9706 18.25 15.3522 18.25 15.75V32.25C18.25 32.6478 18.408 33.0294 18.6893 33.3107C18.9706 33.592 19.3522 33.75 19.75 33.75H36.25C36.6478 33.75 37.0294 33.592 37.3107 33.3107C37.592 33.0294 37.75 32.6478 37.75 32.25V15.75C37.75 15.3522 37.592 14.9706 37.3107 14.6893C37.0294 14.408 36.6478 14.25 36.25 14.25ZM25 28.5C25 28.6989 24.921 28.8897 24.7803 29.0303C24.6397 29.171 24.4489 29.25 24.25 29.25C24.0511 29.25 23.8603 29.171 23.7197 29.0303C23.579 28.8897 23.5 28.6989 23.5 28.5V22.5C23.5 22.3011 23.579 22.1103 23.7197 21.9697C23.8603 21.829 24.0511 21.75 24.25 21.75C24.4489 21.75 24.6397 21.829 24.7803 21.9697C24.921 22.1103 25 22.3011 25 22.5V28.5ZM24.25 21C24.0275 21 23.81 20.934 23.625 20.8104C23.44 20.6868 23.2958 20.5111 23.2106 20.3055C23.1255 20.1 23.1032 19.8738 23.1466 19.6555C23.19 19.4373 23.2972 19.2368 23.4545 19.0795C23.6118 18.9222 23.8123 18.815 24.0305 18.7716C24.2488 18.7282 24.475 18.7505 24.6805 18.8356C24.8861 18.9208 25.0618 19.065 25.1854 19.25C25.309 19.435 25.375 19.6525 25.375 19.875C25.375 20.1734 25.2565 20.4595 25.0455 20.6705C24.8345 20.8815 24.5484 21 24.25 21ZM33.25 28.5C33.25 28.6989 33.171 28.8897 33.0303 29.0303C32.8897 29.171 32.6989 29.25 32.5 29.25C32.3011 29.25 32.1103 29.171 31.9697 29.0303C31.829 28.8897 31.75 28.6989 31.75 28.5V25.125C31.75 24.6277 31.5525 24.1508 31.2008 23.7992C30.8492 23.4475 30.3723 23.25 29.875 23.25C29.3777 23.25 28.9008 23.4475 28.5492 23.7992C28.1975 24.1508 28 24.6277 28 25.125V28.5C28 28.6989 27.921 28.8897 27.7803 29.0303C27.6397 29.171 27.4489 29.25 27.25 29.25C27.0511 29.25 26.8603 29.171 26.7197 29.0303C26.579 28.8897 26.5 28.6989 26.5 28.5V22.5C26.5009 22.3163 26.5693 22.1393 26.692 22.0026C26.8148 21.866 26.9834 21.7791 27.166 21.7585C27.3485 21.7379 27.5323 21.7851 27.6824 21.891C27.8325 21.9969 27.9385 22.1542 27.9803 22.3331C28.4877 21.9889 29.0792 21.7895 29.6914 21.7561C30.3036 21.7228 30.9133 21.8568 31.455 22.1438C31.9968 22.4308 32.4501 22.86 32.7664 23.3852C33.0826 23.9105 33.2498 24.5119 33.25 25.125V28.5Z" fill="#007BB6"/>
</g>
<path d="M49.1477 30V18.3636H51.2557V28.233H56.3807V30H49.1477ZM57.7993 30V21.2727H59.8561V30H57.7993ZM58.8334 20.0341C58.5077 20.0341 58.2273 19.9261 57.9925 19.7102C57.7577 19.4905 57.6402 19.2273 57.6402 18.9205C57.6402 18.6098 57.7577 18.3466 57.9925 18.1307C58.2273 17.911 58.5077 17.8011 58.8334 17.8011C59.163 17.8011 59.4433 17.911 59.6743 18.1307C59.9092 18.3466 60.0266 18.6098 60.0266 18.9205C60.0266 19.2273 59.9092 19.4905 59.6743 19.7102C59.4433 19.9261 59.163 20.0341 58.8334 20.0341ZM63.708 24.8864V30H61.6512V21.2727H63.6171V22.7557H63.7194C63.9201 22.267 64.2402 21.8788 64.6796 21.5909C65.1228 21.303 65.6701 21.1591 66.3216 21.1591C66.9239 21.1591 67.4485 21.2879 67.8955 21.5455C68.3463 21.803 68.6948 22.1761 68.941 22.6648C69.191 23.1534 69.3141 23.7462 69.3103 24.4432V30H67.2535V24.7614C67.2535 24.178 67.102 23.7216 66.7989 23.392C66.4997 23.0625 66.0849 22.8977 65.5546 22.8977C65.1948 22.8977 64.8747 22.9773 64.5944 23.1364C64.3179 23.2917 64.1001 23.517 63.941 23.8125C63.7857 24.108 63.708 24.4659 63.708 24.8864ZM72.9562 27.2614L72.9505 24.7784H73.2801L76.4164 21.2727H78.8198L74.9619 25.5682H74.5357L72.9562 27.2614ZM71.0812 30V18.3636H73.138V30H71.0812ZM76.5585 30L73.7176 26.0284L75.1039 24.5795L79.0187 30H76.5585ZM83.3748 30.1705C82.4998 30.1705 81.7441 29.9886 81.1078 29.625C80.4752 29.2576 79.9885 28.7386 79.6476 28.0682C79.3066 27.3939 79.1362 26.6004 79.1362 25.6875C79.1362 24.7898 79.3066 24.0019 79.6476 23.3239C79.9923 22.642 80.4733 22.1117 81.0907 21.733C81.7082 21.3504 82.4335 21.1591 83.2669 21.1591C83.8048 21.1591 84.3123 21.2462 84.7896 21.4205C85.2707 21.5909 85.6949 21.8561 86.0623 22.2159C86.4335 22.5758 86.7252 23.0341 86.9373 23.5909C87.1495 24.1439 87.2555 24.803 87.2555 25.5682V26.1989H80.1021V24.8125H85.2839C85.2801 24.4186 85.1949 24.0682 85.0282 23.7614C84.8616 23.4508 84.6286 23.2064 84.3294 23.0284C84.0339 22.8504 83.6892 22.7614 83.2953 22.7614C82.8748 22.7614 82.5055 22.8636 82.1873 23.0682C81.8691 23.2689 81.621 23.5341 81.443 23.8636C81.2688 24.1894 81.1798 24.5473 81.176 24.9375V26.1477C81.176 26.6553 81.2688 27.0909 81.4544 27.4545C81.64 27.8144 81.8995 28.0909 82.2328 28.2841C82.5661 28.4735 82.9563 28.5682 83.4032 28.5682C83.7025 28.5682 83.9733 28.5265 84.2157 28.4432C84.4582 28.3561 84.6684 28.2292 84.8464 28.0625C85.0245 27.8958 85.1589 27.6894 85.2498 27.4432L87.1703 27.6591C87.0491 28.1667 86.818 28.6098 86.4771 28.9886C86.14 29.3636 85.7082 29.6553 85.1816 29.8636C84.6551 30.0682 84.0529 30.1705 83.3748 30.1705ZM91.9142 30.1534C91.2286 30.1534 90.615 29.9773 90.0733 29.625C89.5316 29.2727 89.1036 28.7614 88.7892 28.0909C88.4748 27.4205 88.3176 26.6061 88.3176 25.6477C88.3176 24.678 88.4767 23.8598 88.7949 23.1932C89.1169 22.5227 89.5506 22.017 90.096 21.6761C90.6415 21.3314 91.2494 21.1591 91.9199 21.1591C92.4313 21.1591 92.8517 21.2462 93.1813 21.4205C93.5108 21.5909 93.7722 21.7973 93.9653 22.0398C94.1585 22.2784 94.3081 22.5038 94.4142 22.7159H94.4994V18.3636H96.5619V30H94.5392V28.625H94.4142C94.3081 28.8371 94.1547 29.0625 93.954 29.3011C93.7532 29.536 93.4881 29.7367 93.1585 29.9034C92.829 30.0701 92.4142 30.1534 91.9142 30.1534ZM92.4881 28.4659C92.9237 28.4659 93.2949 28.3485 93.6017 28.1136C93.9085 27.875 94.1415 27.5436 94.3006 27.1193C94.4597 26.6951 94.5392 26.2008 94.5392 25.6364C94.5392 25.072 94.4597 24.5814 94.3006 24.1648C94.1453 23.7481 93.9142 23.4242 93.6074 23.1932C93.3044 22.9621 92.9313 22.8466 92.4881 22.8466C92.0297 22.8466 91.6472 22.9659 91.3403 23.2045C91.0335 23.4432 90.8025 23.7727 90.6472 24.1932C90.4919 24.6136 90.4142 25.0947 90.4142 25.6364C90.4142 26.1818 90.4919 26.6686 90.6472 27.0966C90.8063 27.5208 91.0392 27.8561 91.346 28.1023C91.6566 28.3447 92.0373 28.4659 92.4881 28.4659ZM100.633 18.3636V30H98.5246V18.3636H100.633ZM104.561 24.8864V30H102.504V21.2727H104.47V22.7557H104.572C104.773 22.267 105.093 21.8788 105.533 21.5909C105.976 21.303 106.523 21.1591 107.175 21.1591C107.777 21.1591 108.302 21.2879 108.749 21.5455C109.199 21.803 109.548 22.1761 109.794 22.6648C110.044 23.1534 110.167 23.7462 110.163 24.4432V30H108.107V24.7614C108.107 24.178 107.955 23.7216 107.652 23.392C107.353 23.0625 106.938 22.8977 106.408 22.8977C106.048 22.8977 105.728 22.9773 105.447 23.1364C105.171 23.2917 104.953 23.517 104.794 23.8125C104.639 24.108 104.561 24.4659 104.561 24.8864Z" fill="#007BB6"/>
<defs>
<clipPath id="clip0_693_313">
<rect width="24" height="24" fill="white" transform="translate(16 12)"/>
</clipPath>
</defs>
</svg>
