<svg width="145" height="48" viewBox="0 0 145 48" fill="none" xmlns="http://www.w3.org/2000/svg">
<rect width="145" height="48" rx="8" fill="#43D854" fill-opacity="0.12"/>
<rect x="0.5" y="0.5" width="144" height="47" rx="7.5" stroke="#0D3D56" stroke-opacity="0.1"/>
<g clip-path="url(#clip0_693_318)">
<path fill-rule="evenodd" clip-rule="evenodd" d="M29.7496 32.8304C27.607 33.2549 25.3831 32.8856 23.4926 31.7914L19.9873 32.9605C19.8551 33.0046 19.7133 33.011 19.5777 32.979C19.4422 32.947 19.3182 32.8779 19.2197 32.7794C19.1212 32.6808 19.052 32.5569 19.0201 32.4213C18.9881 32.2857 18.9945 32.1439 19.0385 32.0118L20.2113 28.5102C19.1172 26.6197 18.7479 24.3958 19.1724 22.2531C19.5968 20.1105 20.786 18.1953 22.5182 16.8647C24.2504 15.534 26.4074 14.8788 28.5871 15.0211C30.7667 15.1634 32.8202 16.0935 34.3648 17.638C35.9093 19.1825 36.8394 21.2361 36.9817 23.4157C37.124 25.5954 36.4687 27.7524 35.1381 29.4846C33.8075 31.2168 31.8923 32.406 29.7496 32.8304ZM23.6287 19.6287C23.0661 20.1913 22.75 20.9544 22.75 21.75C22.75 23.7391 23.5402 25.6468 24.9467 27.0533C26.3532 28.4598 28.2609 29.25 30.25 29.25C31.0456 29.25 31.8087 28.9339 32.3713 28.3713C32.9339 27.8087 33.25 27.0456 33.25 26.25L30.25 24.75L28.5184 25.905C27.4237 25.4468 26.5532 24.5763 26.095 23.4816L27.25 21.75L25.75 18.75C24.9544 18.75 24.1913 19.0661 23.6287 19.6287Z" fill="#43D854"/>
</g>
<path d="M51.5966 30L48.3125 18.3636H50.5795L52.6761 26.9148H52.7841L55.0227 18.3636H57.0852L59.3295 26.9205H59.4318L61.5284 18.3636H63.7955L60.5114 30H58.4318L56.1023 21.8352H56.0114L53.6761 30H51.5966ZM66.903 24.8864V30H64.8462V18.3636H66.8576V22.7557H66.9598C67.1644 22.2633 67.4807 21.875 67.9087 21.5909C68.3405 21.303 68.8898 21.1591 69.5564 21.1591C70.1625 21.1591 70.6909 21.286 71.1416 21.5398C71.5924 21.7936 71.9409 22.1648 72.1871 22.6534C72.4371 23.142 72.5621 23.7386 72.5621 24.4432V30H70.5053V24.7614C70.5053 24.1742 70.3538 23.7178 70.0507 23.392C69.7515 23.0625 69.331 22.8977 68.7894 22.8977C68.4257 22.8977 68.1 22.9773 67.8121 23.1364C67.528 23.2917 67.3045 23.517 67.1416 23.8125C66.9826 24.108 66.903 24.4659 66.903 24.8864ZM76.8501 30.1761C76.297 30.1761 75.7989 30.0777 75.3557 29.8807C74.9163 29.6799 74.5679 29.3845 74.3103 28.9943C74.0565 28.6042 73.9296 28.1231 73.9296 27.5511C73.9296 27.0587 74.0205 26.6515 74.2023 26.3295C74.3841 26.0076 74.6323 25.75 74.9466 25.5568C75.261 25.3636 75.6152 25.2178 76.0091 25.1193C76.4069 25.017 76.8179 24.9432 77.2421 24.8977C77.7535 24.8447 78.1682 24.7973 78.4864 24.7557C78.8046 24.7102 79.0357 24.642 79.1796 24.5511C79.3273 24.4564 79.4012 24.3106 79.4012 24.1136V24.0795C79.4012 23.6515 79.2743 23.3201 79.0205 23.0852C78.7667 22.8504 78.4012 22.733 77.9239 22.733C77.4201 22.733 77.0205 22.8428 76.7251 23.0625C76.4334 23.2822 76.2364 23.5417 76.1341 23.8409L74.2137 23.5682C74.3652 23.0379 74.6152 22.5947 74.9637 22.2386C75.3122 21.8788 75.7383 21.6098 76.2421 21.4318C76.7459 21.25 77.3027 21.1591 77.9126 21.1591C78.333 21.1591 78.7516 21.2083 79.1682 21.3068C79.5849 21.4053 79.9656 21.5682 80.3103 21.7955C80.655 22.0189 80.9315 22.3239 81.1398 22.7102C81.352 23.0966 81.458 23.5795 81.458 24.1591V30H79.4807V28.8011H79.4126C79.2876 29.0436 79.1114 29.2708 78.8841 29.483C78.6607 29.6913 78.3785 29.8598 78.0376 29.9886C77.7004 30.1136 77.3046 30.1761 76.8501 30.1761ZM77.3841 28.6648C77.797 28.6648 78.155 28.5833 78.458 28.4205C78.761 28.2538 78.994 28.0341 79.1569 27.7614C79.3235 27.4886 79.4069 27.1913 79.4069 26.8693V25.8409C79.3425 25.8939 79.2326 25.9432 79.0773 25.9886C78.9258 26.0341 78.7554 26.0739 78.566 26.108C78.3766 26.142 78.1891 26.1723 78.0035 26.1989C77.8179 26.2254 77.6569 26.2481 77.5205 26.267C77.2137 26.3087 76.9391 26.3769 76.6966 26.4716C76.4542 26.5663 76.2629 26.6989 76.1228 26.8693C75.9826 27.036 75.9126 27.2519 75.9126 27.517C75.9126 27.8958 76.0508 28.1818 76.3273 28.375C76.6038 28.5682 76.9561 28.6648 77.3841 28.6648ZM87.5641 21.2727V22.8636H82.5471V21.2727H87.5641ZM83.7857 19.1818H85.8426V27.375C85.8426 27.6515 85.8842 27.8636 85.9676 28.0114C86.0547 28.1553 86.1683 28.2538 86.3085 28.3068C86.4486 28.3598 86.6039 28.3864 86.7744 28.3864C86.9032 28.3864 87.0206 28.3769 87.1266 28.358C87.2365 28.339 87.3198 28.322 87.3766 28.3068L87.7232 29.9148C87.6134 29.9527 87.4562 29.9943 87.2516 30.0398C87.0509 30.0852 86.8047 30.1117 86.513 30.1193C85.9979 30.1345 85.5338 30.0568 85.121 29.8864C84.7081 29.7121 84.3804 29.4432 84.138 29.0795C83.8994 28.7159 83.782 28.2614 83.7857 27.7159V19.1818ZM95.737 23.5795L93.862 23.7841C93.809 23.5947 93.7162 23.4167 93.5836 23.25C93.4548 23.0833 93.2806 22.9489 93.0609 22.8466C92.8412 22.7443 92.5723 22.6932 92.2541 22.6932C91.8261 22.6932 91.4662 22.786 91.1745 22.9716C90.8867 23.1572 90.7446 23.3977 90.7484 23.6932C90.7446 23.947 90.8374 24.1534 91.0268 24.3125C91.22 24.4716 91.5382 24.6023 91.9814 24.7045L93.47 25.0227C94.2958 25.2008 94.9094 25.483 95.3109 25.8693C95.7162 26.2557 95.9208 26.7614 95.9245 27.3864C95.9208 27.9356 95.7598 28.4205 95.4416 28.8409C95.1272 29.2576 94.6897 29.5833 94.1291 29.8182C93.5685 30.053 92.9245 30.1705 92.1973 30.1705C91.1291 30.1705 90.2692 29.947 89.6177 29.5C88.9662 29.0492 88.578 28.4223 88.453 27.6193L90.4586 27.4261C90.5495 27.8201 90.7427 28.1174 91.0382 28.3182C91.3336 28.5189 91.7181 28.6193 92.1916 28.6193C92.6802 28.6193 93.0723 28.5189 93.3677 28.3182C93.667 28.1174 93.8166 27.8693 93.8166 27.5739C93.8166 27.3239 93.72 27.1174 93.5268 26.9545C93.3374 26.7917 93.042 26.6667 92.6405 26.5795L91.1518 26.267C90.3147 26.0928 89.6954 25.7992 89.2939 25.3864C88.8923 24.9697 88.6935 24.4432 88.6973 23.8068C88.6935 23.2689 88.8393 22.803 89.1348 22.4091C89.434 22.0114 89.8488 21.7045 90.3791 21.4886C90.9132 21.2689 91.5287 21.1591 92.2257 21.1591C93.2484 21.1591 94.0533 21.3769 94.6405 21.8125C95.2314 22.2481 95.5969 22.8371 95.737 23.5795ZM99.8119 30.1761C99.2589 30.1761 98.7608 30.0777 98.3176 29.8807C97.8782 29.6799 97.5297 29.3845 97.2722 28.9943C97.0184 28.6042 96.8915 28.1231 96.8915 27.5511C96.8915 27.0587 96.9824 26.6515 97.1642 26.3295C97.346 26.0076 97.5941 25.75 97.9085 25.5568C98.2229 25.3636 98.5771 25.2178 98.971 25.1193C99.3688 25.017 99.7797 24.9432 100.204 24.8977C100.715 24.8447 101.13 24.7973 101.448 24.7557C101.766 24.7102 101.998 24.642 102.141 24.5511C102.289 24.4564 102.363 24.3106 102.363 24.1136V24.0795C102.363 23.6515 102.236 23.3201 101.982 23.0852C101.729 22.8504 101.363 22.733 100.886 22.733C100.382 22.733 99.9824 22.8428 99.6869 23.0625C99.3953 23.2822 99.1983 23.5417 99.096 23.8409L97.1756 23.5682C97.3271 23.0379 97.5771 22.5947 97.9256 22.2386C98.2741 21.8788 98.7002 21.6098 99.204 21.4318C99.7078 21.25 100.265 21.1591 100.874 21.1591C101.295 21.1591 101.713 21.2083 102.13 21.3068C102.547 21.4053 102.927 21.5682 103.272 21.7955C103.617 22.0189 103.893 22.3239 104.102 22.7102C104.314 23.0966 104.42 23.5795 104.42 24.1591V30H102.443V28.8011H102.374C102.249 29.0436 102.073 29.2708 101.846 29.483C101.623 29.6913 101.34 29.8598 100.999 29.9886C100.662 30.1136 100.266 30.1761 99.8119 30.1761ZM100.346 28.6648C100.759 28.6648 101.117 28.5833 101.42 28.4205C101.723 28.2538 101.956 28.0341 102.119 27.7614C102.285 27.4886 102.369 27.1913 102.369 26.8693V25.8409C102.304 25.8939 102.195 25.9432 102.039 25.9886C101.888 26.0341 101.717 26.0739 101.528 26.108C101.338 26.142 101.151 26.1723 100.965 26.1989C100.78 26.2254 100.619 26.2481 100.482 26.267C100.176 26.3087 99.9009 26.3769 99.6585 26.4716C99.4161 26.5663 99.2248 26.6989 99.0847 26.8693C98.9445 27.036 98.8744 27.2519 98.8744 27.517C98.8744 27.8958 99.0127 28.1818 99.2892 28.375C99.5657 28.5682 99.918 28.6648 100.346 28.6648ZM106.168 33.2727V21.2727H108.191V22.7159H108.31C108.416 22.5038 108.566 22.2784 108.759 22.0398C108.952 21.7973 109.214 21.5909 109.543 21.4205C109.873 21.2462 110.293 21.1591 110.804 21.1591C111.479 21.1591 112.087 21.3314 112.628 21.6761C113.174 22.017 113.606 22.5227 113.924 23.1932C114.246 23.8598 114.407 24.678 114.407 25.6477C114.407 26.6061 114.25 27.4205 113.935 28.0909C113.621 28.7614 113.193 29.2727 112.651 29.625C112.109 29.9773 111.496 30.1534 110.81 30.1534C110.31 30.1534 109.895 30.0701 109.566 29.9034C109.236 29.7367 108.971 29.536 108.77 29.3011C108.573 29.0625 108.42 28.8371 108.31 28.625H108.225V33.2727H106.168ZM108.185 25.6364C108.185 26.2008 108.265 26.6951 108.424 27.1193C108.587 27.5436 108.82 27.875 109.123 28.1136C109.429 28.3485 109.801 28.4659 110.236 28.4659C110.691 28.4659 111.071 28.3447 111.378 28.1023C111.685 27.8561 111.916 27.5208 112.071 27.0966C112.231 26.6686 112.31 26.1818 112.31 25.6364C112.31 25.0947 112.232 24.6136 112.077 24.1932C111.922 23.7727 111.691 23.4432 111.384 23.2045C111.077 22.9659 110.695 22.8466 110.236 22.8466C109.797 22.8466 109.424 22.9621 109.117 23.1932C108.81 23.4242 108.577 23.7481 108.418 24.1648C108.263 24.5814 108.185 25.072 108.185 25.6364ZM115.848 33.2727V21.2727H117.871V22.7159H117.99C118.096 22.5038 118.246 22.2784 118.439 22.0398C118.632 21.7973 118.894 21.5909 119.223 21.4205C119.553 21.2462 119.973 21.1591 120.484 21.1591C121.159 21.1591 121.767 21.3314 122.308 21.6761C122.854 22.017 123.286 22.5227 123.604 23.1932C123.926 23.8598 124.087 24.678 124.087 25.6477C124.087 26.6061 123.93 27.4205 123.615 28.0909C123.301 28.7614 122.873 29.2727 122.331 29.625C121.789 29.9773 121.176 30.1534 120.49 30.1534C119.99 30.1534 119.575 30.0701 119.246 29.9034C118.916 29.7367 118.651 29.536 118.45 29.3011C118.253 29.0625 118.1 28.8371 117.99 28.625H117.905V33.2727H115.848ZM117.865 25.6364C117.865 26.2008 117.945 26.6951 118.104 27.1193C118.267 27.5436 118.5 27.875 118.803 28.1136C119.109 28.3485 119.481 28.4659 119.916 28.4659C120.371 28.4659 120.751 28.3447 121.058 28.1023C121.365 27.8561 121.596 27.5208 121.751 27.0966C121.911 26.6686 121.99 26.1818 121.99 25.6364C121.99 25.0947 121.912 24.6136 121.757 24.1932C121.602 23.7727 121.371 23.4432 121.064 23.2045C120.757 22.9659 120.375 22.8466 119.916 22.8466C119.477 22.8466 119.104 22.9621 118.797 23.1932C118.49 23.4242 118.257 23.7481 118.098 24.1648C117.943 24.5814 117.865 25.072 117.865 25.6364Z" fill="#43D854"/>
<defs>
<clipPath id="clip0_693_318">
<rect width="24" height="24" fill="white" transform="translate(16 12)"/>
</clipPath>
</defs>
</svg>
